<svg width="348" height="149" viewBox="0 0 348 149" fill="none" xmlns="http://www.w3.org/2000/svg">
<g clip-path="url(#clip0_641_24)">
<mask id="mask0_641_24" style="mask-type:luminance" maskUnits="userSpaceOnUse" x="168" y="16" width="127" height="114">
<path d="M295 16H168V130H295V16Z" fill="white"/>
</mask>
<g mask="url(#mask0_641_24)">
<path fill-rule="evenodd" clip-rule="evenodd" d="M168 84.3013C168 59.0622 192.571 38.6025 222.883 38.6025C253.194 38.6025 277.765 59.0622 277.765 84.3013C277.765 109.54 253.194 130 222.883 130C192.571 130 168 109.54 168 84.3013ZM175.6 84.3013C175.6 105.773 196.769 123.178 222.883 123.178C248.996 123.178 270.165 105.773 270.165 84.3013C270.165 62.83 248.996 45.425 222.883 45.425C196.769 45.425 175.6 62.83 175.6 84.3013Z" fill="white"/>
<path fill-rule="evenodd" clip-rule="evenodd" d="M216.648 47.6545C216.648 30.1722 234.188 16 255.824 16C277.461 16 295 30.1722 295 47.6545C295 65.1363 277.461 79.3089 255.824 79.3089C234.188 79.3089 216.648 65.1363 216.648 47.6545ZM222.605 47.6545C222.605 62.1837 237.478 73.9623 255.824 73.9623C274.17 73.9623 289.043 62.1837 289.043 47.6545C289.043 33.1252 274.17 21.347 255.824 21.347C237.478 21.347 222.605 33.1252 222.605 47.6545Z" fill="white"/>
</g>
</g>
<path d="M0.333115 89.9713C0.374388 104.699 12.3469 116.605 27.0744 116.564C41.802 116.522 53.7075 104.55 53.6663 89.8218C53.625 75.0943 41.6525 63.1887 26.925 63.23C12.1974 63.2713 0.291842 75.2438 0.333115 89.9713ZM346.999 88.9998L296.918 60.2725L297.08 118.008L346.999 88.9998ZM27.0137 94.8966L302.013 94.1259L301.985 84.1259L26.9857 84.8966L27.0137 94.8966Z" fill="white"/>
<path d="M61.6836 81.3281C61.6836 80.1693 61.5924 79.2578 61.4102 78.5938C61.2279 77.9297 60.8177 77.4414 60.1797 77.1289C59.5417 76.8034 58.5521 76.5951 57.2109 76.5039C55.8698 76.3997 54.0339 76.3281 51.7031 76.2891L40.8438 76.1328C38.1615 76.0938 36.0065 75.931 34.3789 75.6445C32.7513 75.3581 31.5208 74.9089 30.6875 74.2969C29.8542 73.6719 29.2943 72.8385 29.0078 71.7969C28.7344 70.7552 28.5977 69.4531 28.5977 67.8906C28.5977 66.1849 28.7865 64.7786 29.1641 63.6719C29.5547 62.5651 30.2513 61.6992 31.2539 61.0742C32.2695 60.4492 33.7018 60.013 35.5508 59.7656C37.3997 59.5052 39.7891 59.375 42.7188 59.375H51.0781C53.7344 59.375 55.9479 59.4596 57.7188 59.6289C59.4896 59.7982 60.8958 60.1888 61.9375 60.8008C62.9792 61.4128 63.7214 62.3633 64.1641 63.6523C64.6198 64.9414 64.8477 66.7122 64.8477 68.9648H61.0977C61.0977 67.2201 60.9284 65.9049 60.5898 65.0195C60.2643 64.1211 59.7174 63.5091 58.9492 63.1836C58.194 62.8581 57.1719 62.6823 55.8828 62.6562C54.5938 62.6302 52.9922 62.6172 51.0781 62.6172H42.9141C40.5833 62.6172 38.7148 62.6628 37.3086 62.7539C35.9154 62.8451 34.8607 63.0534 34.1445 63.3789C33.4284 63.7044 32.9466 64.2253 32.6992 64.9414C32.4648 65.6576 32.3477 66.6406 32.3477 67.8906C32.3477 68.9453 32.4323 69.7917 32.6016 70.4297C32.7708 71.0677 33.1484 71.556 33.7344 71.8945C34.3333 72.2201 35.2513 72.4479 36.4883 72.5781C37.7253 72.6953 39.4115 72.7669 41.5469 72.793L53.1875 72.9492C55.9219 72.9883 58.1029 73.151 59.7305 73.4375C61.3711 73.7109 62.5951 74.1602 63.4023 74.7852C64.2227 75.4102 64.763 76.2565 65.0234 77.3242C65.2969 78.3789 65.4336 79.7135 65.4336 81.3281C65.4336 83.0859 65.2643 84.5638 64.9258 85.7617C64.6003 86.9466 63.9622 87.8971 63.0117 88.6133C62.0612 89.3294 60.6875 89.8438 58.8906 90.1562C57.0938 90.4688 54.7305 90.625 51.8008 90.625H42.6602C39.9909 90.625 37.7513 90.5078 35.9414 90.2734C34.1315 90.0391 32.6862 89.5703 31.6055 88.8672C30.5378 88.151 29.7695 87.0898 29.3008 85.6836C28.832 84.2773 28.5977 82.4023 28.5977 80.0586H32.3477C32.3477 81.8945 32.4974 83.3138 32.7969 84.3164C33.0964 85.319 33.6172 86.0417 34.3594 86.4844C35.1146 86.9141 36.1628 87.1745 37.5039 87.2656C38.8581 87.3438 40.5768 87.3828 42.6602 87.3828H51.6055C53.9362 87.3828 55.7786 87.3112 57.1328 87.168C58.487 87.0117 59.4896 86.7253 60.1406 86.3086C60.7917 85.8789 61.2083 85.2669 61.3906 84.4727C61.5859 83.6784 61.6836 82.6302 61.6836 81.3281ZM70.4141 90V60H74.1641V70.4883C74.724 69.7331 75.4141 69.1016 76.2344 68.5938C77.0677 68.0859 78.1745 67.7083 79.5547 67.4609C80.9479 67.2005 82.7708 67.0703 85.0234 67.0703C87.9661 67.0703 90.2839 67.3568 91.9766 67.9297C93.6823 68.5026 94.8932 69.5247 95.6094 70.9961C96.3255 72.4674 96.6836 74.5508 96.6836 77.2461V90H92.9141V77.2461C92.9141 75.7096 92.7839 74.4727 92.5234 73.5352C92.263 72.5977 91.8138 71.888 91.1758 71.4062C90.5508 70.9245 89.6849 70.6055 88.5781 70.4492C87.4714 70.2799 86.0651 70.1953 84.3594 70.1953C81.7552 70.1953 79.7109 70.4102 78.2266 70.8398C76.7422 71.2695 75.694 71.9466 75.082 72.8711C74.4701 73.7826 74.1641 74.974 74.1641 76.4453V90H70.4141ZM113.539 90.4297C110.844 90.4297 108.617 90.2865 106.859 90C105.115 89.7266 103.812 89.1146 102.953 88.1641C102.107 87.2135 101.684 85.7357 101.684 83.7305C101.684 81.6862 102.081 80.1888 102.875 79.2383C103.682 78.2747 104.952 77.6497 106.684 77.3633C108.428 77.0768 110.714 76.9336 113.539 76.9336C115.831 76.9336 117.751 76.9857 119.301 77.0898C120.85 77.194 122.237 77.3763 123.461 77.6367C123.435 75.9049 123.318 74.5443 123.109 73.5547C122.901 72.5521 122.51 71.8099 121.938 71.3281C121.365 70.8464 120.525 70.5404 119.418 70.4102C118.324 70.2669 116.866 70.1953 115.043 70.1953C112.96 70.1953 111.326 70.2409 110.141 70.332C108.969 70.4232 108.116 70.5859 107.582 70.8203C107.048 71.0547 106.71 71.3932 106.566 71.8359C106.436 72.2786 106.371 72.8516 106.371 73.5547H102.621C102.621 72.1484 102.81 71.0156 103.188 70.1562C103.578 69.2969 104.236 68.6458 105.16 68.2031C106.085 67.7604 107.348 67.4609 108.949 67.3047C110.564 67.1484 112.595 67.0703 115.043 67.0703C117.673 67.0703 119.789 67.2396 121.391 67.5781C123.005 67.9167 124.229 68.5286 125.062 69.4141C125.909 70.2865 126.475 71.5104 126.762 73.0859C127.061 74.6615 127.211 76.6927 127.211 79.1797V90H123.461V88.457C123.018 88.9258 122.406 89.3034 121.625 89.5898C120.844 89.8763 119.802 90.0846 118.5 90.2148C117.211 90.3581 115.557 90.4297 113.539 90.4297ZM113.539 87.3828C115.766 87.3828 117.543 87.3568 118.871 87.3047C120.199 87.2526 121.189 87.1094 121.84 86.875C122.504 86.6406 122.94 86.263 123.148 85.7422C123.357 85.2214 123.461 84.4922 123.461 83.5547V80.0977L113.539 79.9805C111.781 79.9544 110.362 79.9805 109.281 80.0586C108.214 80.1237 107.4 80.2799 106.84 80.5273C106.28 80.7617 105.902 81.1393 105.707 81.6602C105.525 82.168 105.434 82.8581 105.434 83.7305C105.434 84.5768 105.525 85.2474 105.707 85.7422C105.902 86.237 106.28 86.6016 106.84 86.8359C107.4 87.0703 108.214 87.2201 109.281 87.2852C110.362 87.3503 111.781 87.3828 113.539 87.3828ZM132.523 90V67.5H136.273V70.6055C136.69 69.9414 137.107 69.388 137.523 68.9453C137.953 68.5026 138.507 68.151 139.184 67.8906C139.874 67.6302 140.805 67.4479 141.977 67.3438C143.148 67.2266 144.691 67.168 146.605 67.168V70.3125C144.027 70.3125 142.029 70.4036 140.609 70.5859C139.203 70.7682 138.194 71.0807 137.582 71.5234C136.97 71.9531 136.599 72.5521 136.469 73.3203C136.339 74.0885 136.273 75.0651 136.273 76.25V90H132.523ZM177.152 83.3203C177.152 85 176.898 86.3216 176.391 87.2852C175.896 88.2487 175.134 88.9518 174.105 89.3945C173.077 89.8372 171.762 90.1172 170.16 90.2344C168.572 90.3646 166.677 90.4297 164.477 90.4297C161.964 90.4297 159.828 90.2995 158.07 90.0391C156.326 89.7917 154.913 89.2773 153.832 88.4961C152.764 87.7018 151.983 86.5169 151.488 84.9414C151.007 83.3659 150.766 81.263 150.766 78.6328C150.766 76.0807 151 74.0365 151.469 72.5C151.951 70.9635 152.725 69.8047 153.793 69.0234C154.861 68.2422 156.26 67.7214 157.992 67.4609C159.737 67.2005 161.866 67.0703 164.379 67.0703C167.257 67.0703 169.639 67.2721 171.527 67.6758C173.415 68.0794 174.822 68.8477 175.746 69.9805C176.684 71.1133 177.152 72.7734 177.152 74.9609V79.7852H154.535C154.548 81.4518 154.665 82.7865 154.887 83.7891C155.108 84.7917 155.551 85.5469 156.215 86.0547C156.879 86.5625 157.868 86.901 159.184 87.0703C160.512 87.2266 162.276 87.3047 164.477 87.3047C166.456 87.3047 168.051 87.2656 169.262 87.1875C170.486 87.1094 171.41 86.9401 172.035 86.6797C172.673 86.4062 173.103 86.0026 173.324 85.4688C173.546 84.9349 173.656 84.2188 173.656 83.3203H177.152ZM164.379 70.1953C162.257 70.1953 160.544 70.2734 159.242 70.4297C157.953 70.5859 156.97 70.8919 156.293 71.3477C155.616 71.7904 155.154 72.4544 154.906 73.3398C154.672 74.2253 154.548 75.3906 154.535 76.8359H173.559V74.9609C173.559 74.0234 173.448 73.2487 173.227 72.6367C173.018 72.0117 172.602 71.5234 171.977 71.1719C171.352 70.8073 170.427 70.5534 169.203 70.4102C167.992 70.2669 166.384 70.1953 164.379 70.1953ZM183.344 60H203.422C206.352 60 208.708 60.1302 210.492 60.3906C212.289 60.651 213.65 61.1003 214.574 61.7383C215.499 62.3763 216.124 63.2487 216.449 64.3555C216.775 65.4622 216.938 66.862 216.938 68.5547V69.3359C216.938 70.8984 216.749 72.2461 216.371 73.3789C216.007 74.4987 215.297 75.4102 214.242 76.1133C213.188 76.8034 211.625 77.2917 209.555 77.5781L216.078 90H212.328L205.941 77.8516C205.681 77.8646 205.408 77.8711 205.121 77.8711C204.848 77.8711 204.561 77.8711 204.262 77.8711H187.094V90H183.344V60ZM187.094 74.6289H203.676C205.902 74.6289 207.654 74.5573 208.93 74.4141C210.219 74.2578 211.163 73.9909 211.762 73.6133C212.374 73.2357 212.764 72.7018 212.934 72.0117C213.103 71.3216 213.188 70.4297 213.188 69.3359V68.5547C213.188 67.3177 213.07 66.3411 212.836 65.625C212.602 64.9089 212.133 64.3815 211.43 64.043C210.727 63.7044 209.678 63.4896 208.285 63.3984C206.892 63.2943 205.03 63.2422 202.699 63.2422H187.094V74.6289ZM224.047 90V60H227.797V90H224.047ZM235.297 90V60H239.203L269.34 85.3711H269.379V60H273.129V90H269.223L239.086 64.4141H239.047V90H235.297ZM279.398 75.3906V74.6094C279.398 71.9531 279.529 69.7266 279.789 67.9297C280.049 66.1198 280.499 64.6484 281.137 63.5156C281.775 62.3828 282.641 61.5169 283.734 60.918C284.841 60.319 286.228 59.9154 287.895 59.707C289.561 59.4857 291.566 59.375 293.91 59.375H301.254C304.327 59.375 306.82 59.4922 308.734 59.7266C310.661 59.9609 312.139 60.4102 313.168 61.0742C314.21 61.7383 314.926 62.7083 315.316 63.9844C315.707 65.2474 315.902 66.9076 315.902 68.9648H312.152C312.152 67.4154 312.016 66.2109 311.742 65.3516C311.469 64.4792 310.954 63.8542 310.199 63.4766C309.444 63.0859 308.344 62.8451 306.898 62.7539C305.466 62.6628 303.585 62.6172 301.254 62.6172H293.91C292.048 62.6172 290.479 62.6758 289.203 62.793C287.927 62.8971 286.885 63.151 286.078 63.5547C285.284 63.9453 284.672 64.5703 284.242 65.4297C283.826 66.2891 283.539 67.4609 283.383 68.9453C283.227 70.4297 283.148 72.3177 283.148 74.6094V75.3906C283.148 77.6042 283.227 79.4401 283.383 80.8984C283.539 82.3568 283.826 83.5221 284.242 84.3945C284.672 85.2669 285.284 85.918 286.078 86.3477C286.885 86.7773 287.927 87.0573 289.203 87.1875C290.479 87.3177 292.048 87.3828 293.91 87.3828H302.562C304.711 87.3828 306.443 87.2982 307.758 87.1289C309.073 86.9466 310.069 86.569 310.746 85.9961C311.436 85.4102 311.898 84.5247 312.133 83.3398C312.367 82.1419 312.484 80.5273 312.484 78.4961V77.3438H298.129V74.2188H316.234V78.4961C316.234 81.0352 316.02 83.099 315.59 84.6875C315.16 86.276 314.431 87.5065 313.402 88.3789C312.387 89.2383 310.993 89.8242 309.223 90.1367C307.465 90.4622 305.245 90.625 302.562 90.625H293.91C290.98 90.625 288.572 90.4232 286.684 90.0195C284.796 89.6289 283.318 88.8997 282.25 87.832C281.195 86.7643 280.453 85.2279 280.023 83.2227C279.607 81.2174 279.398 78.6068 279.398 75.3906Z" fill="url(#paint0_linear_641_24)"/>
<mask id="mask1_641_24" style="mask-type:luminance" maskUnits="userSpaceOnUse" x="27" y="58" width="291" height="34">
<path d="M318 58H27V92H318V58Z" fill="white"/>
<path d="M61.6836 81.3281C61.6836 80.1693 61.5924 79.2578 61.4102 78.5938C61.2279 77.9297 60.8177 77.4414 60.1797 77.1289C59.5417 76.8034 58.5521 76.5951 57.2109 76.5039C55.8698 76.3997 54.0339 76.3281 51.7031 76.2891L40.8438 76.1328C38.1615 76.0938 36.0065 75.931 34.3789 75.6445C32.7513 75.3581 31.5208 74.9089 30.6875 74.2969C29.8542 73.6719 29.2943 72.8385 29.0078 71.7969C28.7344 70.7552 28.5977 69.4531 28.5977 67.8906C28.5977 66.1849 28.7865 64.7786 29.1641 63.6719C29.5547 62.5651 30.2513 61.6992 31.2539 61.0742C32.2695 60.4492 33.7018 60.013 35.5508 59.7656C37.3997 59.5052 39.7891 59.375 42.7188 59.375H51.0781C53.7344 59.375 55.9479 59.4596 57.7188 59.6289C59.4896 59.7982 60.8958 60.1888 61.9375 60.8008C62.9792 61.4128 63.7214 62.3633 64.1641 63.6523C64.6198 64.9414 64.8477 66.7122 64.8477 68.9648H61.0977C61.0977 67.2201 60.9284 65.9049 60.5898 65.0195C60.2643 64.1211 59.7174 63.5091 58.9492 63.1836C58.194 62.8581 57.1719 62.6823 55.8828 62.6562C54.5938 62.6302 52.9922 62.6172 51.0781 62.6172H42.9141C40.5833 62.6172 38.7148 62.6628 37.3086 62.7539C35.9154 62.8451 34.8607 63.0534 34.1445 63.3789C33.4284 63.7044 32.9466 64.2253 32.6992 64.9414C32.4648 65.6576 32.3477 66.6406 32.3477 67.8906C32.3477 68.9453 32.4323 69.7917 32.6016 70.4297C32.7708 71.0677 33.1484 71.556 33.7344 71.8945C34.3333 72.2201 35.2513 72.4479 36.4883 72.5781C37.7253 72.6953 39.4115 72.7669 41.5469 72.793L53.1875 72.9492C55.9219 72.9883 58.1029 73.151 59.7305 73.4375C61.3711 73.7109 62.5951 74.1602 63.4023 74.7852C64.2227 75.4102 64.763 76.2565 65.0234 77.3242C65.2969 78.3789 65.4336 79.7135 65.4336 81.3281C65.4336 83.0859 65.2643 84.5638 64.9258 85.7617C64.6003 86.9466 63.9622 87.8971 63.0117 88.6133C62.0612 89.3294 60.6875 89.8438 58.8906 90.1562C57.0938 90.4688 54.7305 90.625 51.8008 90.625H42.6602C39.9909 90.625 37.7513 90.5078 35.9414 90.2734C34.1315 90.0391 32.6862 89.5703 31.6055 88.8672C30.5378 88.151 29.7695 87.0898 29.3008 85.6836C28.832 84.2773 28.5977 82.4023 28.5977 80.0586H32.3477C32.3477 81.8945 32.4974 83.3138 32.7969 84.3164C33.0964 85.319 33.6172 86.0417 34.3594 86.4844C35.1146 86.9141 36.1628 87.1745 37.5039 87.2656C38.8581 87.3438 40.5768 87.3828 42.6602 87.3828H51.6055C53.9362 87.3828 55.7786 87.3112 57.1328 87.168C58.487 87.0117 59.4896 86.7253 60.1406 86.3086C60.7917 85.8789 61.2083 85.2669 61.3906 84.4727C61.5859 83.6784 61.6836 82.6302 61.6836 81.3281ZM70.4141 90V60H74.1641V70.4883C74.724 69.7331 75.4141 69.1016 76.2344 68.5938C77.0677 68.0859 78.1745 67.7083 79.5547 67.4609C80.9479 67.2005 82.7708 67.0703 85.0234 67.0703C87.9661 67.0703 90.2839 67.3568 91.9766 67.9297C93.6823 68.5026 94.8932 69.5247 95.6094 70.9961C96.3255 72.4674 96.6836 74.5508 96.6836 77.2461V90H92.9141V77.2461C92.9141 75.7096 92.7839 74.4727 92.5234 73.5352C92.263 72.5977 91.8138 71.888 91.1758 71.4062C90.5508 70.9245 89.6849 70.6055 88.5781 70.4492C87.4714 70.2799 86.0651 70.1953 84.3594 70.1953C81.7552 70.1953 79.7109 70.4102 78.2266 70.8398C76.7422 71.2695 75.694 71.9466 75.082 72.8711C74.4701 73.7826 74.1641 74.974 74.1641 76.4453V90H70.4141ZM113.539 90.4297C110.844 90.4297 108.617 90.2865 106.859 90C105.115 89.7266 103.812 89.1146 102.953 88.1641C102.107 87.2135 101.684 85.7357 101.684 83.7305C101.684 81.6862 102.081 80.1888 102.875 79.2383C103.682 78.2747 104.952 77.6497 106.684 77.3633C108.428 77.0768 110.714 76.9336 113.539 76.9336C115.831 76.9336 117.751 76.9857 119.301 77.0898C120.85 77.194 122.237 77.3763 123.461 77.6367C123.435 75.9049 123.318 74.5443 123.109 73.5547C122.901 72.5521 122.51 71.8099 121.938 71.3281C121.365 70.8464 120.525 70.5404 119.418 70.4102C118.324 70.2669 116.866 70.1953 115.043 70.1953C112.96 70.1953 111.326 70.2409 110.141 70.332C108.969 70.4232 108.116 70.5859 107.582 70.8203C107.048 71.0547 106.71 71.3932 106.566 71.8359C106.436 72.2786 106.371 72.8516 106.371 73.5547H102.621C102.621 72.1484 102.81 71.0156 103.188 70.1562C103.578 69.2969 104.236 68.6458 105.16 68.2031C106.085 67.7604 107.348 67.4609 108.949 67.3047C110.564 67.1484 112.595 67.0703 115.043 67.0703C117.673 67.0703 119.789 67.2396 121.391 67.5781C123.005 67.9167 124.229 68.5286 125.062 69.4141C125.909 70.2865 126.475 71.5104 126.762 73.0859C127.061 74.6615 127.211 76.6927 127.211 79.1797V90H123.461V88.457C123.018 88.9258 122.406 89.3034 121.625 89.5898C120.844 89.8763 119.802 90.0846 118.5 90.2148C117.211 90.3581 115.557 90.4297 113.539 90.4297ZM113.539 87.3828C115.766 87.3828 117.543 87.3568 118.871 87.3047C120.199 87.2526 121.189 87.1094 121.84 86.875C122.504 86.6406 122.94 86.263 123.148 85.7422C123.357 85.2214 123.461 84.4922 123.461 83.5547V80.0977L113.539 79.9805C111.781 79.9544 110.362 79.9805 109.281 80.0586C108.214 80.1237 107.4 80.2799 106.84 80.5273C106.28 80.7617 105.902 81.1393 105.707 81.6602C105.525 82.168 105.434 82.8581 105.434 83.7305C105.434 84.5768 105.525 85.2474 105.707 85.7422C105.902 86.237 106.28 86.6016 106.84 86.8359C107.4 87.0703 108.214 87.2201 109.281 87.2852C110.362 87.3503 111.781 87.3828 113.539 87.3828ZM132.523 90V67.5H136.273V70.6055C136.69 69.9414 137.107 69.388 137.523 68.9453C137.953 68.5026 138.507 68.151 139.184 67.8906C139.874 67.6302 140.805 67.4479 141.977 67.3438C143.148 67.2266 144.691 67.168 146.605 67.168V70.3125C144.027 70.3125 142.029 70.4036 140.609 70.5859C139.203 70.7682 138.194 71.0807 137.582 71.5234C136.97 71.9531 136.599 72.5521 136.469 73.3203C136.339 74.0885 136.273 75.0651 136.273 76.25V90H132.523ZM177.152 83.3203C177.152 85 176.898 86.3216 176.391 87.2852C175.896 88.2487 175.134 88.9518 174.105 89.3945C173.077 89.8372 171.762 90.1172 170.16 90.2344C168.572 90.3646 166.677 90.4297 164.477 90.4297C161.964 90.4297 159.828 90.2995 158.07 90.0391C156.326 89.7917 154.913 89.2773 153.832 88.4961C152.764 87.7018 151.983 86.5169 151.488 84.9414C151.007 83.3659 150.766 81.263 150.766 78.6328C150.766 76.0807 151 74.0365 151.469 72.5C151.951 70.9635 152.725 69.8047 153.793 69.0234C154.861 68.2422 156.26 67.7214 157.992 67.4609C159.737 67.2005 161.866 67.0703 164.379 67.0703C167.257 67.0703 169.639 67.2721 171.527 67.6758C173.415 68.0794 174.822 68.8477 175.746 69.9805C176.684 71.1133 177.152 72.7734 177.152 74.9609V79.7852H154.535C154.548 81.4518 154.665 82.7865 154.887 83.7891C155.108 84.7917 155.551 85.5469 156.215 86.0547C156.879 86.5625 157.868 86.901 159.184 87.0703C160.512 87.2266 162.276 87.3047 164.477 87.3047C166.456 87.3047 168.051 87.2656 169.262 87.1875C170.486 87.1094 171.41 86.9401 172.035 86.6797C172.673 86.4062 173.103 86.0026 173.324 85.4688C173.546 84.9349 173.656 84.2188 173.656 83.3203H177.152ZM164.379 70.1953C162.257 70.1953 160.544 70.2734 159.242 70.4297C157.953 70.5859 156.97 70.8919 156.293 71.3477C155.616 71.7904 155.154 72.4544 154.906 73.3398C154.672 74.2253 154.548 75.3906 154.535 76.8359H173.559V74.9609C173.559 74.0234 173.448 73.2487 173.227 72.6367C173.018 72.0117 172.602 71.5234 171.977 71.1719C171.352 70.8073 170.427 70.5534 169.203 70.4102C167.992 70.2669 166.384 70.1953 164.379 70.1953ZM183.344 60H203.422C206.352 60 208.708 60.1302 210.492 60.3906C212.289 60.651 213.65 61.1003 214.574 61.7383C215.499 62.3763 216.124 63.2487 216.449 64.3555C216.775 65.4622 216.938 66.862 216.938 68.5547V69.3359C216.938 70.8984 216.749 72.2461 216.371 73.3789C216.007 74.4987 215.297 75.4102 214.242 76.1133C213.188 76.8034 211.625 77.2917 209.555 77.5781L216.078 90H212.328L205.941 77.8516C205.681 77.8646 205.408 77.8711 205.121 77.8711C204.848 77.8711 204.561 77.8711 204.262 77.8711H187.094V90H183.344V60ZM187.094 74.6289H203.676C205.902 74.6289 207.654 74.5573 208.93 74.4141C210.219 74.2578 211.163 73.9909 211.762 73.6133C212.374 73.2357 212.764 72.7018 212.934 72.0117C213.103 71.3216 213.188 70.4297 213.188 69.3359V68.5547C213.188 67.3177 213.07 66.3411 212.836 65.625C212.602 64.9089 212.133 64.3815 211.43 64.043C210.727 63.7044 209.678 63.4896 208.285 63.3984C206.892 63.2943 205.03 63.2422 202.699 63.2422H187.094V74.6289ZM224.047 90V60H227.797V90H224.047ZM235.297 90V60H239.203L269.34 85.3711H269.379V60H273.129V90H269.223L239.086 64.4141H239.047V90H235.297ZM279.398 75.3906V74.6094C279.398 71.9531 279.529 69.7266 279.789 67.9297C280.049 66.1198 280.499 64.6484 281.137 63.5156C281.775 62.3828 282.641 61.5169 283.734 60.918C284.841 60.319 286.228 59.9154 287.895 59.707C289.561 59.4857 291.566 59.375 293.91 59.375H301.254C304.327 59.375 306.82 59.4922 308.734 59.7266C310.661 59.9609 312.139 60.4102 313.168 61.0742C314.21 61.7383 314.926 62.7083 315.316 63.9844C315.707 65.2474 315.902 66.9076 315.902 68.9648H312.152C312.152 67.4154 312.016 66.2109 311.742 65.3516C311.469 64.4792 310.954 63.8542 310.199 63.4766C309.444 63.0859 308.344 62.8451 306.898 62.7539C305.466 62.6628 303.585 62.6172 301.254 62.6172H293.91C292.048 62.6172 290.479 62.6758 289.203 62.793C287.927 62.8971 286.885 63.151 286.078 63.5547C285.284 63.9453 284.672 64.5703 284.242 65.4297C283.826 66.2891 283.539 67.4609 283.383 68.9453C283.227 70.4297 283.148 72.3177 283.148 74.6094V75.3906C283.148 77.6042 283.227 79.4401 283.383 80.8984C283.539 82.3568 283.826 83.5221 284.242 84.3945C284.672 85.2669 285.284 85.918 286.078 86.3477C286.885 86.7773 287.927 87.0573 289.203 87.1875C290.479 87.3177 292.048 87.3828 293.91 87.3828H302.562C304.711 87.3828 306.443 87.2982 307.758 87.1289C309.073 86.9466 310.069 86.569 310.746 85.9961C311.436 85.4102 311.898 84.5247 312.133 83.3398C312.367 82.1419 312.484 80.5273 312.484 78.4961V77.3438H298.129V74.2188H316.234V78.4961C316.234 81.0352 316.02 83.099 315.59 84.6875C315.16 86.276 314.431 87.5065 313.402 88.3789C312.387 89.2383 310.993 89.8242 309.223 90.1367C307.465 90.4622 305.245 90.625 302.562 90.625H293.91C290.98 90.625 288.572 90.4232 286.684 90.0195C284.796 89.6289 283.318 88.8997 282.25 87.832C281.195 86.7643 280.453 85.2279 280.023 83.2227C279.607 81.2174 279.398 78.6068 279.398 75.3906Z" fill="black"/>
</mask>
<g mask="url(#mask1_641_24)">
<path d="M60.1797 77.1289L59.7252 78.0197L59.7325 78.0234L59.7398 78.027L60.1797 77.1289ZM57.2109 76.5039L57.1335 77.5009L57.1431 77.5016L57.2109 76.5039ZM51.7031 76.2891L51.7199 75.2892H51.7175L51.7031 76.2891ZM30.6875 74.2969L30.0875 75.0969L30.0956 75.1029L30.6875 74.2969ZM29.0078 71.7969L28.0405 72.0508L28.0436 72.062L29.0078 71.7969ZM29.1641 63.6719L28.221 63.339L28.2176 63.349L29.1641 63.6719ZM31.2539 61.0742L30.7298 60.2225L30.7249 60.2256L31.2539 61.0742ZM35.5508 59.7656L35.6834 60.7568L35.6902 60.7559L35.5508 59.7656ZM64.1641 63.6523L63.2182 63.9772L63.2212 63.9857L64.1641 63.6523ZM64.8477 68.9648V69.9648H65.8477V68.9648H64.8477ZM61.0977 68.9648H60.0977V69.9648H61.0977V68.9648ZM60.5898 65.0195L59.6497 65.3602L59.6526 65.3685L59.6558 65.3767L60.5898 65.0195ZM58.9492 63.1836L58.5534 64.1019L58.5591 64.1043L58.9492 63.1836ZM32.6992 64.9414L31.754 64.6149L31.7514 64.6226L31.7488 64.6304L32.6992 64.9414ZM33.7344 71.8945L33.2341 72.7604L33.2454 72.7669L33.2569 72.7732L33.7344 71.8945ZM36.4883 72.5781L36.3836 73.5727L36.394 73.5737L36.4883 72.5781ZM41.5469 72.793L41.5603 71.7931L41.5591 71.793L41.5469 72.793ZM59.7305 73.4375L59.5571 74.4224L59.5661 74.4239L59.7305 73.4375ZM63.4023 74.7852L62.7902 75.5759L62.7963 75.5806L63.4023 74.7852ZM65.0234 77.3242L64.0519 77.5612L64.0536 77.5682L64.0554 77.5752L65.0234 77.3242ZM64.9258 85.7617L63.9634 85.4898L63.9615 85.4968L64.9258 85.7617ZM31.6055 88.8672L31.0484 89.6978L31.0601 89.7054L31.6055 88.8672ZM28.5977 80.0586V79.0586H27.5977V80.0586H28.5977ZM32.3477 80.0586H33.3477V79.0586H32.3477V80.0586ZM34.3594 86.4844L33.8471 87.3432L33.8559 87.3485L33.8649 87.3535L34.3594 86.4844ZM37.5039 87.2656L37.4361 88.2634L37.4463 88.264L37.5039 87.2656ZM57.1328 87.168L57.238 88.1625L57.2474 88.1614L57.1328 87.168ZM60.1406 86.3086L60.6797 87.1509L60.6915 87.1432L60.1406 86.3086ZM61.3906 84.4727L60.4196 84.2339L60.4177 84.2414L60.416 84.249L61.3906 84.4727ZM62.6836 81.3281C62.6836 80.1318 62.5911 79.1182 62.3745 78.329L60.4458 78.8585C60.5938 79.3975 60.6836 80.2067 60.6836 81.3281H62.6836ZM62.3745 78.329C62.1136 77.3786 61.5058 76.6649 60.6196 76.2308L59.7398 78.027C60.1296 78.2179 60.3422 78.4808 60.4458 78.8585L62.3745 78.329ZM60.6342 76.2381C59.8118 75.8186 58.6572 75.5999 57.2787 75.5062L57.1431 77.5016C58.4469 77.5902 59.2715 77.7882 59.7252 78.0197L60.6342 76.2381ZM57.2884 75.5069C55.9177 75.4004 54.0585 75.3284 51.7199 75.2892L51.6864 77.2889C54.0092 77.3279 55.8219 77.399 57.1335 77.5009L57.2884 75.5069ZM51.7175 75.2892L40.8581 75.1329L40.8292 77.1327L51.6887 77.289L51.7175 75.2892ZM40.8581 75.1329C38.2006 75.0942 36.1053 74.933 34.5522 74.6597L34.2056 76.6294C35.9077 76.929 38.1221 77.0933 40.8292 77.1327L40.8581 75.1329ZM34.5522 74.6597C32.9952 74.3856 31.9363 73.9733 31.2794 73.4909L30.0956 75.1029C31.1053 75.8444 32.5074 76.3305 34.2056 76.6294L34.5522 74.6597ZM31.2875 73.4969C30.6384 73.0101 30.2021 72.3682 29.972 71.5317L28.0436 72.062C28.3865 73.3089 29.0699 74.3337 30.0875 75.0969L31.2875 73.4969ZM29.975 71.543C29.7307 70.6122 29.5977 69.4023 29.5977 67.8906H27.5977C27.5977 69.504 27.7379 70.8982 28.0405 72.0508L29.975 71.543ZM29.5977 67.8906C29.5977 66.249 29.7806 64.9617 30.1105 63.9948L28.2176 63.349C27.7923 64.5956 27.5977 66.1208 27.5977 67.8906H29.5977ZM30.1071 64.0047C30.4216 63.1134 30.9714 62.4287 31.7829 61.9228L30.7249 60.2256C29.5312 60.9697 28.6876 62.0167 28.221 63.339L30.1071 64.0047ZM31.778 61.9259C32.6261 61.404 33.9032 60.995 35.6834 60.7568L35.4182 58.7745C33.5004 59.0311 31.913 59.4944 30.7298 60.2225L31.778 61.9259ZM35.6902 60.7559C37.4747 60.5045 39.8127 60.375 42.7188 60.375V58.375C39.7654 58.375 37.3247 58.5059 35.4113 58.7754L35.6902 60.7559ZM42.7188 60.375H51.0781V58.375H42.7188V60.375ZM51.0781 60.375C53.7164 60.375 55.8957 60.4592 57.6236 60.6244L57.8139 58.6334C56.0001 58.4601 53.7523 58.375 51.0781 58.375V60.375ZM57.6236 60.6244C59.3122 60.7858 60.5601 61.1514 61.431 61.663L62.444 59.9386C61.2316 59.2262 59.667 58.8106 57.8139 58.6334L57.6236 60.6244ZM61.431 61.663C62.2403 62.1385 62.8424 62.8831 63.2182 63.9772L65.1098 63.3275C64.6002 61.8435 63.7181 60.6871 62.444 59.9386L61.431 61.663ZM63.2212 63.9857C63.6225 65.1207 63.8477 66.7621 63.8477 68.9648H65.8477C65.8477 66.6623 65.617 64.7621 65.1069 63.319L63.2212 63.9857ZM64.8477 67.9648H61.0977V69.9648H64.8477V67.9648ZM62.0977 68.9648C62.0977 67.1829 61.9286 65.7207 61.5239 64.6624L59.6558 65.3767C59.9282 66.0892 60.0977 67.2572 60.0977 68.9648H62.0977ZM61.53 64.6789C61.1249 63.5608 60.4018 62.713 59.3394 62.2628L58.5591 64.1043C59.0331 64.3052 59.4037 64.6814 59.6497 65.3602L61.53 64.6789ZM59.345 62.2653C58.4231 61.8679 57.2561 61.6838 55.903 61.6565L55.8626 63.656C57.0876 63.6808 57.965 63.8483 58.5534 64.1019L59.345 62.2653ZM55.903 61.6565C54.6048 61.6302 52.996 61.6172 51.0781 61.6172V63.6172C52.9883 63.6172 54.5827 63.6302 55.8626 63.656L55.903 61.6565ZM51.0781 61.6172H42.9141V63.6172H51.0781V61.6172ZM42.9141 61.6172C40.5737 61.6172 38.681 61.6629 37.2439 61.756L37.3733 63.7518C38.7487 63.6627 40.593 63.6172 42.9141 63.6172V61.6172ZM37.2439 61.756C35.8087 61.8499 34.6109 62.0685 33.7307 62.4685L34.5583 64.2893C35.1105 64.0383 36.022 63.8402 37.3733 63.7518L37.2439 61.756ZM33.7307 62.4685C32.7756 62.9027 32.0948 63.6285 31.754 64.6149L33.6444 65.2679C33.7985 64.822 34.0811 64.5062 34.5583 64.2893L33.7307 62.4685ZM31.7488 64.6304C31.4671 65.4913 31.3477 66.5949 31.3477 67.8906H33.3477C33.3477 66.6864 33.4626 65.8238 33.6496 65.2524L31.7488 64.6304ZM31.3477 67.8906C31.3477 68.9869 31.4344 69.9299 31.635 70.6861L33.5681 70.1733C33.4302 69.6534 33.3477 68.9037 33.3477 67.8906H31.3477ZM31.635 70.6861C31.8744 71.5884 32.4244 72.2926 33.2341 72.7604L34.2347 71.0287C33.8725 70.8194 33.6673 70.547 33.5681 70.1733L31.635 70.6861ZM33.2569 72.7732C34.0305 73.1936 35.1058 73.4382 36.3836 73.5727L36.593 71.5836C35.3968 71.4577 34.6362 71.2465 34.2119 71.0159L33.2569 72.7732ZM36.394 73.5737C37.6708 73.6946 39.3883 73.7667 41.5347 73.7929L41.5591 71.793C39.4346 71.7671 37.7797 71.696 36.5826 71.5826L36.394 73.5737ZM41.5335 73.7929L53.1741 73.9491L53.2018 71.9493L41.5603 71.7931L41.5335 73.7929ZM53.1741 73.9491C55.8848 73.9878 58.0049 74.1492 59.5571 74.4224L59.9038 72.4526C58.2008 72.1529 55.9598 71.9887 53.2018 71.9493L53.1741 73.9491ZM59.5661 74.4239C61.1349 74.6854 62.1713 75.0967 62.7902 75.5759L64.0145 73.9944C63.0188 73.2236 61.6073 72.7365 59.8949 72.4511L59.5661 74.4239ZM62.7963 75.5806C63.422 76.0573 63.8419 76.7003 64.0519 77.5612L65.995 77.0873C65.6841 75.8127 65.0233 74.763 64.0084 73.9897L62.7963 75.5806ZM64.0554 77.5752C64.3001 78.5188 64.4336 79.7617 64.4336 81.3281H66.4336C66.4336 79.6654 66.2937 78.239 65.9914 77.0733L64.0554 77.5752ZM64.4336 81.3281C64.4336 83.0286 64.269 84.4084 63.9634 85.4898L65.8881 86.0337C66.2596 84.7192 66.4336 83.1433 66.4336 81.3281H64.4336ZM63.9615 85.4968C63.6925 86.4761 63.1779 87.236 62.41 87.8146L63.6135 89.412C64.7466 88.5583 65.508 87.4172 65.8901 86.0266L63.9615 85.4968ZM62.41 87.8146C61.6358 88.3979 60.4356 88.8726 58.7193 89.171L59.062 91.1415C60.9394 90.8149 62.4866 90.261 63.6135 89.412L62.41 87.8146ZM58.7193 89.171C57.0024 89.4696 54.703 89.625 51.8008 89.625V91.625C54.7579 91.625 57.1851 91.4679 59.062 91.1415L58.7193 89.171ZM51.8008 89.625H42.6602V91.625H51.8008V89.625ZM42.6602 89.625C40.0161 89.625 37.8226 89.5087 36.0698 89.2817L35.813 91.2652C37.68 91.5069 39.9656 91.625 42.6602 91.625V89.625ZM36.0698 89.2817C34.351 89.0591 33.0648 88.6236 32.1508 88.029L31.0601 89.7054C32.3076 90.517 33.912 91.019 35.813 91.2652L36.0698 89.2817ZM32.1625 88.0367C31.3061 87.4623 30.6594 86.5971 30.2495 85.3674L28.3521 85.9998C28.8797 87.5825 29.7695 88.8399 31.0484 89.6978L32.1625 88.0367ZM30.2495 85.3674C29.8285 84.1046 29.5977 82.3497 29.5977 80.0586H27.5977C27.5977 82.455 27.8355 84.4501 28.3521 85.9998L30.2495 85.3674ZM28.5977 81.0586H32.3477V79.0586H28.5977V81.0586ZM31.3477 80.0586C31.3477 81.9302 31.4982 83.4626 31.8387 84.6026L33.755 84.0302C33.4966 83.165 33.3477 81.8589 33.3477 80.0586H31.3477ZM31.8387 84.6026C32.1939 85.7919 32.8464 86.7463 33.8471 87.3432L34.8717 85.6256C34.388 85.3371 33.9988 84.8461 33.755 84.0302L31.8387 84.6026ZM33.8649 87.3535C34.8029 87.8872 36.019 88.1671 37.4361 88.2634L37.5717 86.2679C36.3066 86.1819 35.4263 85.9409 34.8539 85.6152L33.8649 87.3535ZM37.4463 88.264C38.8269 88.3436 40.5666 88.3828 42.6602 88.3828V86.3828C40.5871 86.3828 38.8892 86.3439 37.5615 86.2673L37.4463 88.264ZM42.6602 88.3828H51.6055V86.3828H42.6602V88.3828ZM51.6055 88.3828C53.9504 88.3828 55.8329 88.3111 57.238 88.1625L57.0276 86.1735C55.7244 86.3114 53.922 86.3828 51.6055 86.3828V88.3828ZM57.2474 88.1614C58.6541 87.9991 59.8372 87.6901 60.6797 87.1509L59.6016 85.4663C59.142 85.7604 58.3199 86.0244 57.0182 86.1746L57.2474 88.1614ZM60.6915 87.1432C61.5674 86.5651 62.1283 85.7288 62.3653 84.6964L60.416 84.249C60.2883 84.8051 60.0159 85.1927 59.5898 85.474L60.6915 87.1432ZM62.3617 84.7114C62.5841 83.8071 62.6836 82.6693 62.6836 81.3281H60.6836C60.6836 82.5911 60.5878 83.5497 60.4196 84.2339L62.3617 84.7114ZM70.4141 90H69.4141V91H70.4141V90ZM70.4141 60V59H69.4141V60H70.4141ZM74.1641 60H75.1641V59H74.1641V60ZM74.1641 70.4883H73.1641V73.5162L74.9674 71.0838L74.1641 70.4883ZM76.2344 68.5938L75.714 67.7398L75.708 67.7435L76.2344 68.5938ZM79.5547 67.4609L79.7311 68.4453L79.7384 68.4439L79.5547 67.4609ZM91.9766 67.9297L91.656 68.8769L91.6582 68.8776L91.9766 67.9297ZM96.6836 90V91H97.6836V90H96.6836ZM92.9141 90H91.9141V91H92.9141V90ZM91.1758 71.4062L90.5652 72.1983L90.5732 72.2043L91.1758 71.4062ZM88.5781 70.4492L88.4269 71.4378L88.4383 71.4394L88.5781 70.4492ZM75.082 72.8711L75.9123 73.4285L75.9159 73.4231L75.082 72.8711ZM74.1641 90V91H75.1641V90H74.1641ZM71.4141 90V60H69.4141V90H71.4141ZM70.4141 61H74.1641V59H70.4141V61ZM73.1641 60V70.4883H75.1641V60H73.1641ZM74.9674 71.0838C75.4499 70.433 76.0451 69.887 76.7607 69.444L75.708 67.7435C74.783 68.3161 73.998 69.0332 73.3608 69.8927L74.9674 71.0838ZM76.7547 69.4477C77.4471 69.0258 78.4239 68.6797 79.7311 68.4453L79.3783 66.4766C77.9251 66.7371 76.6883 67.1461 75.714 67.7398L76.7547 69.4477ZM79.7384 68.4439C81.0465 68.1994 82.801 68.0703 85.0234 68.0703V66.0703C82.7406 66.0703 80.8494 66.2016 79.371 66.478L79.7384 68.4439ZM85.0234 68.0703C87.9181 68.0703 90.1117 68.3542 91.656 68.8769L92.2972 66.9825C90.456 66.3593 88.0142 66.0703 85.0234 66.0703V68.0703ZM91.6582 68.8776C93.1376 69.3746 94.1236 70.2287 94.7102 71.4337L96.5085 70.5585C95.6628 68.8208 94.227 67.6306 92.295 66.9817L91.6582 68.8776ZM94.7102 71.4337C95.3304 72.708 95.6836 74.6161 95.6836 77.2461H97.6836C97.6836 74.4855 97.3206 72.2269 96.5085 70.5585L94.7102 71.4337ZM95.6836 77.2461V90H97.6836V77.2461H95.6836ZM96.6836 89H92.9141V91H96.6836V89ZM93.9141 90V77.2461H91.9141V90H93.9141ZM93.9141 77.2461C93.9141 75.665 93.7814 74.3274 93.487 73.2675L91.5599 73.8028C91.7863 74.6179 91.9141 75.7543 91.9141 77.2461H93.9141ZM93.487 73.2675C93.1808 72.1655 92.6271 71.2491 91.7784 70.6082L90.5732 72.2043C91.0005 72.527 91.3452 73.0298 91.5599 73.8028L93.487 73.2675ZM91.7863 70.6142C90.9788 69.9918 89.9287 69.63 88.7179 69.459L88.4383 71.4394C89.4411 71.581 90.1227 71.8572 90.5652 72.1983L91.7863 70.6142ZM88.7293 69.4607C87.5538 69.2809 86.0924 69.1953 84.3594 69.1953V71.1953C86.0378 71.1953 87.3889 71.2791 88.4269 71.4378L88.7293 69.4607ZM84.3594 69.1953C81.716 69.1953 79.5641 69.4116 77.9485 69.8793L78.5046 71.8004C79.8578 71.4087 81.7944 71.1953 84.3594 71.1953V69.1953ZM77.9485 69.8793C76.3254 70.3491 75.0345 71.1312 74.2482 72.3191L75.9159 73.4231C76.3535 72.762 77.159 72.1899 78.5046 71.8004L77.9485 69.8793ZM74.2518 72.3137C73.4973 73.4374 73.1641 74.8415 73.1641 76.4453H75.1641C75.1641 75.1064 75.4428 74.1277 75.9123 73.4285L74.2518 72.3137ZM73.1641 76.4453V90H75.1641V76.4453H73.1641ZM74.1641 89H70.4141V91H74.1641V89ZM106.859 90L107.02 89.013L107.014 89.0121L106.859 90ZM102.953 88.1641L102.206 88.8291L102.211 88.8347L102.953 88.1641ZM106.684 77.3633L106.522 76.3765L106.52 76.3767L106.684 77.3633ZM123.461 77.6367L123.253 78.6148L124.48 78.8759L124.461 77.6217L123.461 77.6367ZM123.109 73.5547L122.13 73.7581L122.131 73.7607L123.109 73.5547ZM119.418 70.4102L119.288 71.4018L119.301 71.4033L119.418 70.4102ZM106.566 71.8359L105.615 71.5281L105.611 71.5409L105.607 71.5538L106.566 71.8359ZM106.371 73.5547V74.5547H107.371V73.5547H106.371ZM102.621 73.5547H101.621V74.5547H102.621V73.5547ZM103.188 70.1562L102.277 69.7424L102.272 69.754L103.188 70.1562ZM108.949 67.3047L108.853 66.3093L108.852 66.3094L108.949 67.3047ZM121.391 67.5781L121.184 68.5565L121.185 68.5568L121.391 67.5781ZM125.062 69.4141L124.334 70.0994L124.339 70.1049L124.345 70.1104L125.062 69.4141ZM126.762 73.0859L125.778 73.2648L125.779 73.2727L126.762 73.0859ZM127.211 90V91H128.211V90H127.211ZM123.461 90H122.461V91H123.461V90ZM123.461 88.457H124.461V85.9418L122.734 87.7704L123.461 88.457ZM118.5 90.2148L118.4 89.2197L118.39 89.221L118.5 90.2148ZM121.84 86.875L121.507 85.932L121.501 85.9341L121.84 86.875ZM123.461 80.0977H124.461V79.1094L123.473 79.0977L123.461 80.0977ZM113.539 79.9805L113.524 80.9804H113.527L113.539 79.9805ZM109.281 80.0586L109.342 81.0568L109.353 81.056L109.281 80.0586ZM106.84 80.5273L107.226 81.4498L107.235 81.446L107.244 81.442L106.84 80.5273ZM105.707 81.6602L104.771 81.309L104.766 81.3223L105.707 81.6602ZM105.707 85.7422L104.769 86.0879L104.773 86.0987L104.777 86.1094L105.707 85.7422ZM113.539 89.4297C110.873 89.4297 108.705 89.2876 107.02 89.013L106.699 90.987C108.529 91.2853 110.814 91.4297 113.539 91.4297V89.4297ZM107.014 89.0121C105.411 88.7608 104.352 88.2198 103.695 87.4934L102.211 88.8347C103.273 90.0093 104.818 90.6923 106.705 90.9879L107.014 89.0121ZM103.7 87.4991C103.088 86.8119 102.684 85.6249 102.684 83.7305H100.684C100.684 85.8465 101.125 87.6152 102.206 88.8291L103.7 87.4991ZM102.684 83.7305C102.684 81.7794 103.069 80.5655 103.642 79.8795L102.108 78.5961C101.092 79.8111 100.684 81.593 100.684 83.7305H102.684ZM103.642 79.8795C104.244 79.1603 105.258 78.6127 106.847 78.3499L106.52 76.3767C104.646 76.6868 103.12 77.3882 102.108 78.5961L103.642 79.8795ZM106.846 78.3501C108.515 78.076 110.74 77.9336 113.539 77.9336V75.9336C110.687 75.9336 108.342 76.0776 106.522 76.3765L106.846 78.3501ZM113.539 77.9336C115.818 77.9336 117.714 77.9854 119.234 78.0876L119.368 76.0921C117.788 75.9859 115.844 75.9336 113.539 75.9336V77.9336ZM119.234 78.0876C120.747 78.1893 122.085 78.3663 123.253 78.6148L123.669 76.6586C122.389 76.3863 120.954 76.1987 119.368 76.0921L119.234 78.0876ZM124.461 77.6217C124.434 75.8641 124.316 74.43 124.088 73.3487L122.131 73.7607C122.32 74.6586 122.435 75.9458 122.461 77.6518L124.461 77.6217ZM124.088 73.3512C123.851 72.209 123.379 71.2339 122.581 70.5628L121.294 72.0935C121.642 72.3859 121.951 72.8952 122.13 73.7581L124.088 73.3512ZM122.581 70.5628C121.802 69.9078 120.747 69.5596 119.535 69.417L119.301 71.4033C120.303 71.5212 120.927 71.7849 121.294 72.0935L122.581 70.5628ZM119.548 69.4186C118.392 69.2673 116.885 69.1953 115.043 69.1953V71.1953C116.847 71.1953 118.256 71.2666 119.288 71.4018L119.548 69.4186ZM115.043 69.1953C112.95 69.1953 111.286 69.2409 110.064 69.335L110.217 71.3291C111.365 71.2408 112.969 71.1953 115.043 71.1953V69.1953ZM110.064 69.335C108.87 69.4279 107.875 69.5994 107.18 69.9047L107.984 71.736C108.356 71.5725 109.068 71.4184 110.218 71.329L110.064 69.335ZM107.18 69.9047C106.456 70.2226 105.868 70.7475 105.615 71.5281L107.518 72.1438C107.552 72.039 107.641 71.8868 107.984 71.736L107.18 69.9047ZM105.607 71.5538C105.44 72.1227 105.371 72.8005 105.371 73.5547H107.371C107.371 72.9027 107.433 72.4346 107.526 72.1181L105.607 71.5538ZM106.371 72.5547H102.621V74.5547H106.371V72.5547ZM103.621 73.5547C103.621 72.2242 103.802 71.2441 104.103 70.5585L102.272 69.754C101.818 70.7871 101.621 72.0726 101.621 73.5547H103.621ZM104.098 70.5701C104.383 69.9435 104.86 69.4557 105.592 69.105L104.728 67.3012C103.611 67.836 102.774 68.6503 102.277 69.7424L104.098 70.5701ZM105.592 69.105C106.369 68.7331 107.502 68.4506 109.046 68.3L108.852 66.3094C107.193 66.4713 105.8 66.7877 104.728 67.3012L105.592 69.105ZM109.046 68.3C110.616 68.148 112.613 68.0703 115.043 68.0703V66.0703C112.577 66.0703 110.511 66.1489 108.853 66.3093L109.046 68.3ZM115.043 68.0703C117.64 68.0703 119.678 68.2383 121.184 68.5565L121.597 66.5997C119.9 66.2409 117.706 66.0703 115.043 66.0703V68.0703ZM121.185 68.5568C122.67 68.8681 123.683 69.4077 124.334 70.0994L125.791 68.7287C124.775 67.6496 123.341 66.9653 121.596 66.5994L121.185 68.5568ZM124.345 70.1104C125.015 70.8017 125.516 71.8234 125.778 73.2648L127.746 72.9071C127.435 71.1975 126.802 69.7712 125.78 68.7177L124.345 70.1104ZM125.779 73.2727C126.063 74.7628 126.211 76.7252 126.211 79.1797H128.211C128.211 76.6602 128.06 74.5601 127.744 72.8992L125.779 73.2727ZM126.211 79.1797V90H128.211V79.1797H126.211ZM127.211 89H123.461V91H127.211V89ZM124.461 90V88.457H122.461V90H124.461ZM122.734 87.7704C122.424 88.0987 121.957 88.4028 121.281 88.651L121.969 90.5287C122.855 90.2039 123.613 89.7528 124.188 89.1437L122.734 87.7704ZM121.281 88.651C120.61 88.8969 119.661 89.0937 118.4 89.2197L118.6 91.2099C119.943 91.0755 121.078 90.8557 121.969 90.5287L121.281 88.651ZM118.39 89.221C117.151 89.3585 115.538 89.4297 113.539 89.4297V91.4297C115.576 91.4297 117.27 91.3576 118.61 91.2087L118.39 89.221ZM113.539 88.3828C115.771 88.3828 117.563 88.3567 118.91 88.3039L118.832 86.3055C117.523 86.3568 115.76 86.3828 113.539 86.3828V88.3828ZM118.91 88.3039C120.265 88.2508 121.379 88.1036 122.179 87.8159L121.501 85.9341C120.998 86.1151 120.134 86.2544 118.832 86.3055L118.91 88.3039ZM122.173 87.818C123.034 87.5141 123.735 86.9675 124.077 86.1136L122.22 85.3708C122.145 85.5585 121.974 85.7671 121.507 85.932L122.173 87.818ZM124.077 86.1136C124.354 85.4213 124.461 84.5455 124.461 83.5547H122.461C122.461 84.4388 122.36 85.0214 122.22 85.3708L124.077 86.1136ZM124.461 83.5547V80.0977H122.461V83.5547H124.461ZM123.473 79.0977L113.551 78.9805L113.527 80.9804L123.449 81.0976L123.473 79.0977ZM113.554 78.9806C111.782 78.9543 110.331 78.9801 109.209 79.0612L109.353 81.056C110.393 80.9808 111.78 80.9545 113.524 80.9804L113.554 78.9806ZM109.22 79.0604C108.109 79.1282 107.156 79.2942 106.436 79.6127L107.244 81.442C107.643 81.2657 108.318 81.1193 109.342 81.0568L109.22 79.0604ZM106.454 79.6049C105.665 79.9349 105.072 80.505 104.771 81.309L106.643 82.0113C106.732 81.7736 106.895 81.5885 107.226 81.4498L106.454 79.6049ZM104.766 81.3223C104.528 81.9846 104.434 82.8049 104.434 83.7305H106.434C106.434 82.9112 106.521 82.3514 106.648 81.998L104.766 81.3223ZM104.434 83.7305C104.434 84.6322 104.528 85.4359 104.769 86.0879L106.645 85.3965C106.521 85.0589 106.434 84.5214 106.434 83.7305H104.434ZM104.777 86.1094C105.085 86.8912 105.683 87.4359 106.454 87.7584L107.226 85.9135C106.877 85.7672 106.719 85.5828 106.637 85.375L104.777 86.1094ZM106.454 87.7584C107.167 88.0571 108.112 88.2157 109.22 88.2833L109.342 86.287C108.315 86.2244 107.632 86.0836 107.226 85.9135L106.454 87.7584ZM109.22 88.2833C110.329 88.3502 111.772 88.3828 113.539 88.3828V86.3828C111.791 86.3828 110.395 86.3504 109.342 86.287L109.22 88.2833ZM132.523 90H131.523V91H132.523V90ZM132.523 67.5V66.5H131.523V67.5H132.523ZM136.273 67.5H137.273V66.5H136.273V67.5ZM136.273 70.6055H135.273V74.0807L137.12 71.137L136.273 70.6055ZM137.523 68.9453L136.806 68.2488L136.801 68.2544L136.795 68.2599L137.523 68.9453ZM139.184 67.8906L138.831 66.955L138.825 66.9573L139.184 67.8906ZM141.977 67.3438L142.065 68.3399L142.076 68.3388L141.977 67.3438ZM146.605 67.168H147.605V66.168H146.605V67.168ZM146.605 70.3125V71.3125H147.605V70.3125H146.605ZM137.582 71.5234L138.157 72.3419L138.168 72.3337L137.582 71.5234ZM136.273 90V91H137.273V90H136.273ZM133.523 90V67.5H131.523V90H133.523ZM132.523 68.5H136.273V66.5H132.523V68.5ZM135.273 67.5V70.6055H137.273V67.5H135.273ZM137.12 71.137C137.512 70.513 137.89 70.0148 138.252 69.6307L136.795 68.2599C136.323 68.7613 135.868 69.3698 135.426 70.074L137.12 71.137ZM138.241 69.6418C138.554 69.3198 138.977 69.0414 139.543 68.824L138.825 66.9573C138.036 67.2607 137.353 67.6854 136.806 68.2488L138.241 69.6418ZM139.537 68.8262C140.107 68.6111 140.937 68.4402 142.065 68.3399L141.888 66.3477C140.673 66.4557 139.641 66.6493 138.831 66.955L139.537 68.8262ZM142.076 68.3388C143.201 68.2263 144.707 68.168 146.605 68.168V66.168C144.676 66.168 143.096 66.2268 141.877 66.3487L142.076 68.3388ZM145.605 67.168V70.3125H147.605V67.168H145.605ZM146.605 69.3125C144.013 69.3125 141.964 69.4037 140.482 69.5941L140.737 71.5778C142.093 71.4036 144.042 71.3125 146.605 71.3125V69.3125ZM140.482 69.5941C139.032 69.7821 137.816 70.1201 136.996 70.7132L138.168 72.3337C138.572 72.0414 139.376 71.7542 140.738 71.5776L140.482 69.5941ZM137.007 70.705C136.167 71.2952 135.656 72.134 135.483 73.1532L137.455 73.4874C137.542 72.9701 137.773 72.611 138.157 72.3419L137.007 70.705ZM135.483 73.1532C135.34 73.9972 135.273 75.0348 135.273 76.25H137.273C137.273 75.0954 137.337 74.1799 137.455 73.4874L135.483 73.1532ZM135.273 76.25V90H137.273V76.25H135.273ZM136.273 89H132.523V91H136.273V89ZM177.152 83.3203H178.152V82.3203H177.152V83.3203ZM176.391 87.2852L175.506 86.8189L175.501 86.8284L176.391 87.2852ZM170.16 90.2344L170.087 89.237L170.078 89.2377L170.16 90.2344ZM158.07 90.0391L158.217 89.0498L158.211 89.049L158.07 90.0391ZM153.832 88.4961L153.235 89.2985L153.246 89.3065L153.832 88.4961ZM151.488 84.9414L150.532 85.2338L150.534 85.241L151.488 84.9414ZM151.469 72.5L150.515 72.2008L150.512 72.2082L151.469 72.5ZM157.992 67.4609L157.845 66.4719L157.843 66.4721L157.992 67.4609ZM175.746 69.9805L174.971 70.6128L174.976 70.618L175.746 69.9805ZM177.152 79.7852V80.7852H178.152V79.7852H177.152ZM154.535 79.7852V78.7852H153.527L153.535 79.793L154.535 79.7852ZM159.184 87.0703L159.056 88.0622L159.067 88.0635L159.184 87.0703ZM172.035 86.6797L172.42 87.6028L172.429 87.5988L172.035 86.6797ZM173.656 83.3203V82.3203H172.656V83.3203H173.656ZM159.242 70.4297L159.123 69.4368L159.122 69.437L159.242 70.4297ZM156.293 71.3477L156.84 72.1847L156.851 72.1772L156.293 71.3477ZM154.906 73.3398L153.943 73.0707L153.94 73.084L154.906 73.3398ZM154.535 76.8359L153.535 76.8269L153.526 77.8359H154.535V76.8359ZM173.559 76.8359V77.8359H174.559V76.8359H173.559ZM173.227 72.6367L172.278 72.9529L172.282 72.965L172.286 72.9769L173.227 72.6367ZM171.977 71.1719L171.473 72.0357L171.479 72.0396L171.486 72.0435L171.977 71.1719ZM169.203 70.4102L169.086 71.4032L169.087 71.4034L169.203 70.4102ZM176.152 83.3203C176.152 84.9176 175.908 86.0563 175.506 86.8189L177.275 87.7514C177.889 86.5869 178.152 85.0824 178.152 83.3203H176.152ZM175.501 86.8284C175.116 87.5778 174.533 88.1217 173.71 88.476L174.501 90.3131C175.735 89.7819 176.675 88.9196 177.28 87.742L175.501 86.8284ZM173.71 88.476C172.818 88.8601 171.622 89.1248 170.087 89.237L170.233 91.2317C171.902 91.1096 173.336 90.8144 174.501 90.3131L173.71 88.476ZM170.078 89.2377C168.525 89.365 166.659 89.4297 164.477 89.4297V91.4297C166.695 91.4297 168.618 91.3641 170.242 91.231L170.078 89.2377ZM164.477 89.4297C161.994 89.4297 159.911 89.3007 158.217 89.0498L157.924 91.0283C159.745 91.2981 161.933 91.4297 164.477 91.4297V89.4297ZM158.211 89.049C156.577 88.8173 155.331 88.3461 154.418 87.6857L153.246 89.3065C154.494 90.2086 156.074 90.766 157.93 91.0292L158.211 89.049ZM154.429 87.6938C153.567 87.0528 152.889 86.0654 152.442 84.6418L150.534 85.241C151.077 86.9685 151.961 88.3509 153.235 89.2985L154.429 87.6938ZM152.445 84.649C152.004 83.2074 151.766 81.2155 151.766 78.6328H149.766C149.766 81.3105 150.009 83.5244 150.532 85.2338L152.445 84.649ZM151.766 78.6328C151.766 76.1287 151.997 74.1949 152.425 72.7918L150.512 72.2082C150.003 73.878 149.766 76.0327 149.766 78.6328H151.766ZM152.423 72.7992C152.855 71.4213 153.523 70.4603 154.383 69.8305L153.202 68.2164C151.928 69.1491 151.046 70.5058 150.515 72.2008L152.423 72.7992ZM154.383 69.8305C155.285 69.1705 156.519 68.6937 158.141 68.4498L157.843 66.4721C156.002 66.749 154.436 67.3139 153.202 68.2164L154.383 69.8305ZM158.14 68.45C159.82 68.1992 161.896 68.0703 164.379 68.0703V66.0703C161.835 66.0703 159.654 66.2018 157.845 66.4719L158.14 68.45ZM164.379 68.0703C167.217 68.0703 169.524 68.27 171.318 68.6537L171.736 66.6979C169.755 66.2743 167.296 66.0703 164.379 66.0703V68.0703ZM171.318 68.6537C173.056 69.0251 174.231 69.7056 174.971 70.6128L176.521 69.3482C175.412 67.9898 173.775 67.1338 171.736 66.6979L171.318 68.6537ZM174.976 70.618C175.707 71.5022 176.152 72.8966 176.152 74.9609H178.152C178.152 72.6502 177.66 70.7244 176.516 69.3429L174.976 70.618ZM176.152 74.9609V79.7852H178.152V74.9609H176.152ZM177.152 78.7852H154.535V80.7852H177.152V78.7852ZM153.535 79.793C153.548 81.4921 153.667 82.905 153.91 84.0047L155.863 83.5735C155.663 82.6679 155.548 81.4116 155.535 79.7773L153.535 79.793ZM153.91 84.0047C154.17 85.1832 154.716 86.1673 155.607 86.849L156.822 85.2603C156.386 84.9265 156.046 84.4002 155.863 83.5735L153.91 84.0047ZM155.607 86.849C156.47 87.5089 157.659 87.8824 159.056 88.0622L159.311 86.0785C158.078 85.9198 157.287 85.6161 156.822 85.2603L155.607 86.849ZM159.067 88.0635C160.45 88.2262 162.258 88.3047 164.477 88.3047V86.3047C162.294 86.3047 160.573 86.2269 159.3 86.0772L159.067 88.0635ZM164.477 88.3047C166.466 88.3047 168.085 88.2655 169.326 88.1854L169.198 86.1895C168.018 86.2656 166.446 86.3047 164.477 86.3047V88.3047ZM169.325 88.1855C170.585 88.105 171.641 87.9271 172.42 87.6028L171.651 85.7566C171.179 85.9531 170.386 86.1137 169.198 86.1895L169.325 88.1855ZM172.429 87.5988C173.255 87.2447 173.907 86.6737 174.248 85.8518L172.4 85.0857C172.299 85.3315 172.091 85.5678 171.641 85.7605L172.429 87.5988ZM174.248 85.8518C174.54 85.1481 174.656 84.2851 174.656 83.3203H172.656C172.656 84.1524 172.551 84.7216 172.4 85.0857L174.248 85.8518ZM173.656 84.3203H177.152V82.3203H173.656V84.3203ZM164.379 69.1953C162.238 69.1953 160.481 69.2738 159.123 69.4368L159.361 71.4226C160.607 71.273 162.275 71.1953 164.379 71.1953V69.1953ZM159.122 69.437C157.759 69.6022 156.598 69.937 155.735 70.5181L156.851 72.1772C157.342 71.8469 158.147 71.5697 159.363 71.4224L159.122 69.437ZM155.746 70.5107C154.838 71.1041 154.246 71.9859 153.943 73.0707L155.869 73.6089C156.061 72.923 156.394 72.4767 156.84 72.1847L155.746 70.5107ZM153.94 73.084C153.675 74.0824 153.549 75.3403 153.535 76.8269L155.535 76.8449C155.548 75.4409 155.669 74.3681 155.873 73.5957L153.94 73.084ZM154.535 77.8359H173.559V75.8359H154.535V77.8359ZM174.559 76.8359V74.9609H172.559V76.8359H174.559ZM174.559 74.9609C174.559 73.9541 174.441 73.0543 174.167 72.2966L172.286 72.9769C172.455 73.4431 172.559 74.0927 172.559 74.9609H174.559ZM174.175 72.3205C173.881 71.4382 173.288 70.7619 172.467 70.3003L171.486 72.0435C171.916 72.2849 172.155 72.5853 172.278 72.9529L174.175 72.3205ZM172.48 70.3081C171.681 69.8418 170.597 69.5665 169.319 69.4169L169.087 71.4034C170.257 71.5403 171.022 71.7728 171.473 72.0357L172.48 70.3081ZM169.321 69.4171C168.054 69.2673 166.402 69.1953 164.379 69.1953V71.1953C166.366 71.1953 167.93 71.2666 169.086 71.4032L169.321 69.4171ZM183.344 60V59H182.344V60H183.344ZM210.492 60.3906L210.348 61.3801L210.349 61.3803L210.492 60.3906ZM216.371 73.3789L215.422 73.0627L215.42 73.0693L216.371 73.3789ZM214.242 76.1133L214.79 76.9501L214.797 76.9453L214.242 76.1133ZM209.555 77.5781L209.418 76.5876L208.007 76.7827L208.669 78.0431L209.555 77.5781ZM216.078 90V91H217.733L216.963 89.5351L216.078 90ZM212.328 90L211.443 90.4653L211.724 91H212.328V90ZM205.941 77.8516L206.827 77.3862L206.529 76.8209L205.891 76.8528L205.941 77.8516ZM187.094 77.8711V76.8711H186.094V77.8711H187.094ZM187.094 90V91H188.094V90H187.094ZM183.344 90H182.344V91H183.344V90ZM187.094 74.6289H186.094V75.6289H187.094V74.6289ZM208.93 74.4141L209.041 75.4079L209.05 75.4068L208.93 74.4141ZM211.762 73.6133L211.237 72.7622L211.228 72.7674L211.762 73.6133ZM208.285 63.3984L208.211 64.3957L208.22 64.3963L208.285 63.3984ZM187.094 63.2422V62.2422H186.094V63.2422H187.094ZM183.344 61H203.422V59H183.344V61ZM203.422 61C206.329 61 208.632 61.1296 210.348 61.3801L210.637 59.4011C208.785 59.1308 206.374 59 203.422 59V61ZM210.349 61.3803C212.077 61.6307 213.263 62.0486 214.006 62.5613L215.142 60.9153C214.036 60.1519 212.503 59.6715 210.637 59.4011L210.349 61.3803ZM214.006 62.5613C214.737 63.0654 215.227 63.7442 215.49 64.6376L217.409 64.0733C217.02 62.7532 216.261 61.6872 215.142 60.9153L214.006 62.5613ZM215.49 64.6376C215.779 65.6209 215.938 66.9173 215.938 68.5547H217.938C217.938 66.8067 217.77 65.3036 217.409 64.0733L215.49 64.6376ZM215.938 68.5547V69.3359H217.938V68.5547H215.938ZM215.938 69.3359C215.938 70.8222 215.757 72.0578 215.422 73.0627L217.32 73.6951C217.74 72.4344 217.938 70.9747 217.938 69.3359H215.938ZM215.42 73.0693C215.131 73.9586 214.57 74.6926 213.687 75.2812L214.797 76.9453C216.023 76.1277 216.882 75.0388 217.322 73.6885L215.42 73.0693ZM213.695 75.2765C212.819 75.8492 211.426 76.3097 209.418 76.5876L209.692 78.5687C211.824 78.2736 213.556 77.7576 214.79 76.9501L213.695 75.2765ZM208.669 78.0431L215.193 90.4649L216.963 89.5351L210.44 77.1132L208.669 78.0431ZM216.078 89H212.328V91H216.078V89ZM213.213 89.5347L206.827 77.3862L205.056 78.3169L211.443 90.4653L213.213 89.5347ZM205.891 76.8528C205.649 76.8649 205.393 76.8711 205.121 76.8711V78.8711C205.423 78.8711 205.713 78.8642 205.991 78.8503L205.891 76.8528ZM205.121 76.8711C205.121 76.8711 205.12 76.8711 205.119 76.8711H205.118C205.117 76.8711 205.117 76.8711 205.116 76.8711C205.115 76.8711 205.114 76.8711 205.113 76.8711C205.113 76.8711 205.112 76.8711 205.111 76.8711C205.11 76.8711 205.109 76.8711 205.108 76.8711H205.107C205.106 76.8711 205.106 76.8711 205.105 76.8711C205.105 76.8711 205.104 76.8711 205.103 76.8711C205.102 76.8711 205.101 76.8711 205.1 76.8711H205.099C205.098 76.8711 205.098 76.8711 205.097 76.8711C205.096 76.8711 205.096 76.8711 205.095 76.8711H205.094C205.093 76.8711 205.093 76.8711 205.092 76.8711C205.091 76.8711 205.09 76.8711 205.089 76.8711C205.088 76.8711 205.088 76.8711 205.087 76.8711H205.086C205.085 76.8711 205.085 76.8711 205.084 76.8711H205.083C205.082 76.8711 205.081 76.8711 205.081 76.8711C205.08 76.8711 205.08 76.8711 205.079 76.8711C205.078 76.8711 205.077 76.8711 205.076 76.8711H205.075C205.074 76.8711 205.073 76.8711 205.073 76.8711C205.072 76.8711 205.072 76.8711 205.071 76.8711C205.07 76.8711 205.069 76.8711 205.068 76.8711C205.068 76.8711 205.067 76.8711 205.066 76.8711C205.065 76.8711 205.064 76.8711 205.063 76.8711H205.062C205.061 76.8711 205.061 76.8711 205.06 76.8711C205.059 76.8711 205.059 76.8711 205.058 76.8711C205.057 76.8711 205.056 76.8711 205.055 76.8711C205.054 76.8711 205.052 76.8711 205.052 76.8711C205.051 76.8711 205.051 76.8711 205.05 76.8711H205.049C205.048 76.8711 205.048 76.8711 205.047 76.8711C205.047 76.8711 205.046 76.8711 205.045 76.8711C205.044 76.8711 205.043 76.8711 205.042 76.8711H205.041C205.04 76.8711 205.04 76.8711 205.039 76.8711C205.038 76.8711 205.038 76.8711 205.037 76.8711H205.036C205.035 76.8711 205.035 76.8711 205.034 76.8711C205.033 76.8711 205.031 76.8711 205.031 76.8711C205.03 76.8711 205.03 76.8711 205.029 76.8711H205.028C205.027 76.8711 205.027 76.8711 205.026 76.8711C205.026 76.8711 205.025 76.8711 205.024 76.8711H205.023C205.022 76.8711 205.022 76.8711 205.021 76.8711C205.02 76.8711 205.018 76.8711 205.018 76.8711C205.017 76.8711 205.017 76.8711 205.016 76.8711H205.015C205.014 76.8711 205.014 76.8711 205.013 76.8711C205.013 76.8711 205.012 76.8711 205.011 76.8711H205.01C205.009 76.8711 205.009 76.8711 205.008 76.8711C205.007 76.8711 205.006 76.8711 205.005 76.8711C205.004 76.8711 205.004 76.8711 205.003 76.8711H205.002C205.001 76.8711 205.001 76.8711 205 76.8711C205 76.8711 204.999 76.8711 204.998 76.8711H204.997C204.996 76.8711 204.996 76.8711 204.995 76.8711C204.994 76.8711 204.993 76.8711 204.992 76.8711C204.991 76.8711 204.991 76.8711 204.99 76.8711H204.989C204.988 76.8711 204.988 76.8711 204.987 76.8711C204.987 76.8711 204.986 76.8711 204.985 76.8711H204.984C204.983 76.8711 204.983 76.8711 204.982 76.8711C204.981 76.8711 204.979 76.8711 204.979 76.8711C204.978 76.8711 204.978 76.8711 204.977 76.8711H204.976C204.975 76.8711 204.975 76.8711 204.974 76.8711C204.974 76.8711 204.973 76.8711 204.972 76.8711H204.971C204.97 76.8711 204.97 76.8711 204.969 76.8711C204.968 76.8711 204.966 76.8711 204.966 76.8711C204.965 76.8711 204.965 76.8711 204.964 76.8711H204.963C204.962 76.8711 204.962 76.8711 204.961 76.8711C204.96 76.8711 204.96 76.8711 204.959 76.8711H204.958C204.957 76.8711 204.957 76.8711 204.956 76.8711C204.956 76.8711 204.955 76.8711 204.954 76.8711C204.953 76.8711 204.952 76.8711 204.951 76.8711H204.95C204.949 76.8711 204.949 76.8711 204.948 76.8711C204.947 76.8711 204.947 76.8711 204.946 76.8711C204.945 76.8711 204.944 76.8711 204.943 76.8711C204.943 76.8711 204.942 76.8711 204.941 76.8711C204.94 76.8711 204.939 76.8711 204.938 76.8711H204.937C204.936 76.8711 204.935 76.8711 204.935 76.8711C204.934 76.8711 204.934 76.8711 204.933 76.8711C204.932 76.8711 204.931 76.8711 204.93 76.8711C204.929 76.8711 204.929 76.8711 204.928 76.8711C204.927 76.8711 204.926 76.8711 204.925 76.8711C204.924 76.8711 204.924 76.8711 204.923 76.8711H204.922C204.921 76.8711 204.921 76.8711 204.92 76.8711C204.92 76.8711 204.919 76.8711 204.918 76.8711C204.917 76.8711 204.916 76.8711 204.915 76.8711C204.914 76.8711 204.912 76.8711 204.912 76.8711C204.911 76.8711 204.911 76.8711 204.91 76.8711H204.909C204.908 76.8711 204.908 76.8711 204.907 76.8711C204.906 76.8711 204.906 76.8711 204.905 76.8711C204.904 76.8711 204.903 76.8711 204.902 76.8711C204.902 76.8711 204.901 76.8711 204.9 76.8711C204.899 76.8711 204.898 76.8711 204.897 76.8711H204.896C204.895 76.8711 204.894 76.8711 204.894 76.8711C204.893 76.8711 204.893 76.8711 204.892 76.8711C204.891 76.8711 204.889 76.8711 204.889 76.8711C204.888 76.8711 204.888 76.8711 204.887 76.8711C204.886 76.8711 204.885 76.8711 204.884 76.8711C204.883 76.8711 204.883 76.8711 204.882 76.8711H204.881C204.88 76.8711 204.88 76.8711 204.879 76.8711C204.879 76.8711 204.878 76.8711 204.877 76.8711C204.876 76.8711 204.875 76.8711 204.874 76.8711C204.874 76.8711 204.873 76.8711 204.872 76.8711C204.871 76.8711 204.87 76.8711 204.869 76.8711H204.868C204.867 76.8711 204.866 76.8711 204.866 76.8711C204.865 76.8711 204.865 76.8711 204.864 76.8711C204.863 76.8711 204.861 76.8711 204.861 76.8711C204.86 76.8711 204.86 76.8711 204.859 76.8711C204.858 76.8711 204.857 76.8711 204.856 76.8711C204.855 76.8711 204.855 76.8711 204.854 76.8711H204.853C204.852 76.8711 204.852 76.8711 204.851 76.8711C204.85 76.8711 204.85 76.8711 204.849 76.8711C204.848 76.8711 204.847 76.8711 204.846 76.8711C204.846 76.8711 204.845 76.8711 204.844 76.8711C204.843 76.8711 204.842 76.8711 204.841 76.8711C204.841 76.8711 204.84 76.8711 204.839 76.8711H204.838C204.837 76.8711 204.837 76.8711 204.836 76.8711C204.835 76.8711 204.833 76.8711 204.833 76.8711C204.832 76.8711 204.832 76.8711 204.831 76.8711C204.83 76.8711 204.828 76.8711 204.828 76.8711C204.827 76.8711 204.827 76.8711 204.826 76.8711H204.825C204.824 76.8711 204.823 76.8711 204.823 76.8711C204.822 76.8711 204.822 76.8711 204.821 76.8711C204.82 76.8711 204.818 76.8711 204.818 76.8711C204.817 76.8711 204.817 76.8711 204.816 76.8711C204.815 76.8711 204.814 76.8711 204.813 76.8711C204.812 76.8711 204.812 76.8711 204.811 76.8711H204.81C204.809 76.8711 204.809 76.8711 204.808 76.8711C204.807 76.8711 204.807 76.8711 204.806 76.8711H204.805C204.804 76.8711 204.804 76.8711 204.803 76.8711C204.802 76.8711 204.802 76.8711 204.801 76.8711C204.8 76.8711 204.799 76.8711 204.798 76.8711C204.797 76.8711 204.797 76.8711 204.796 76.8711H204.795C204.794 76.8711 204.794 76.8711 204.793 76.8711C204.792 76.8711 204.792 76.8711 204.791 76.8711H204.79C204.789 76.8711 204.789 76.8711 204.788 76.8711C204.787 76.8711 204.787 76.8711 204.786 76.8711C204.785 76.8711 204.784 76.8711 204.783 76.8711C204.783 76.8711 204.782 76.8711 204.781 76.8711H204.78C204.779 76.8711 204.779 76.8711 204.778 76.8711C204.778 76.8711 204.777 76.8711 204.776 76.8711H204.775C204.774 76.8711 204.774 76.8711 204.773 76.8711C204.773 76.8711 204.772 76.8711 204.771 76.8711C204.77 76.8711 204.769 76.8711 204.768 76.8711C204.768 76.8711 204.767 76.8711 204.766 76.8711H204.765C204.764 76.8711 204.764 76.8711 204.763 76.8711C204.763 76.8711 204.762 76.8711 204.761 76.8711H204.76C204.759 76.8711 204.759 76.8711 204.758 76.8711C204.758 76.8711 204.757 76.8711 204.756 76.8711C204.755 76.8711 204.754 76.8711 204.753 76.8711C204.753 76.8711 204.752 76.8711 204.751 76.8711H204.75C204.749 76.8711 204.749 76.8711 204.748 76.8711C204.747 76.8711 204.747 76.8711 204.746 76.8711H204.745C204.744 76.8711 204.744 76.8711 204.743 76.8711C204.742 76.8711 204.742 76.8711 204.741 76.8711C204.74 76.8711 204.739 76.8711 204.738 76.8711C204.737 76.8711 204.737 76.8711 204.736 76.8711C204.735 76.8711 204.734 76.8711 204.733 76.8711C204.732 76.8711 204.732 76.8711 204.731 76.8711H204.73C204.729 76.8711 204.729 76.8711 204.728 76.8711C204.727 76.8711 204.727 76.8711 204.726 76.8711C204.725 76.8711 204.724 76.8711 204.723 76.8711C204.722 76.8711 204.722 76.8711 204.721 76.8711C204.72 76.8711 204.719 76.8711 204.718 76.8711C204.717 76.8711 204.717 76.8711 204.716 76.8711H204.715C204.714 76.8711 204.713 76.8711 204.713 76.8711C204.712 76.8711 204.712 76.8711 204.711 76.8711C204.71 76.8711 204.708 76.8711 204.708 76.8711C204.707 76.8711 204.707 76.8711 204.706 76.8711C204.705 76.8711 204.703 76.8711 204.703 76.8711C204.702 76.8711 204.702 76.8711 204.701 76.8711C204.701 76.8711 204.7 76.8711 204.699 76.8711H204.698C204.697 76.8711 204.697 76.8711 204.696 76.8711C204.696 76.8711 204.695 76.8711 204.694 76.8711H204.693C204.692 76.8711 204.692 76.8711 204.691 76.8711C204.691 76.8711 204.69 76.8711 204.689 76.8711C204.688 76.8711 204.687 76.8711 204.686 76.8711C204.685 76.8711 204.685 76.8711 204.684 76.8711H204.683C204.682 76.8711 204.682 76.8711 204.681 76.8711C204.68 76.8711 204.68 76.8711 204.679 76.8711H204.678C204.677 76.8711 204.677 76.8711 204.676 76.8711C204.675 76.8711 204.675 76.8711 204.674 76.8711C204.673 76.8711 204.671 76.8711 204.671 76.8711C204.67 76.8711 204.67 76.8711 204.669 76.8711H204.668C204.667 76.8711 204.666 76.8711 204.666 76.8711C204.665 76.8711 204.665 76.8711 204.664 76.8711C204.664 76.8711 204.663 76.8711 204.662 76.8711H204.661C204.66 76.8711 204.66 76.8711 204.659 76.8711C204.659 76.8711 204.658 76.8711 204.657 76.8711C204.656 76.8711 204.655 76.8711 204.654 76.8711C204.653 76.8711 204.653 76.8711 204.652 76.8711C204.651 76.8711 204.65 76.8711 204.649 76.8711C204.648 76.8711 204.648 76.8711 204.647 76.8711H204.646C204.645 76.8711 204.645 76.8711 204.644 76.8711C204.643 76.8711 204.643 76.8711 204.642 76.8711C204.641 76.8711 204.639 76.8711 204.639 76.8711C204.638 76.8711 204.638 76.8711 204.637 76.8711C204.637 76.8711 204.636 76.8711 204.635 76.8711C204.634 76.8711 204.633 76.8711 204.632 76.8711C204.632 76.8711 204.631 76.8711 204.63 76.8711H204.629C204.628 76.8711 204.628 76.8711 204.627 76.8711C204.626 76.8711 204.626 76.8711 204.625 76.8711H204.624C204.623 76.8711 204.623 76.8711 204.622 76.8711C204.621 76.8711 204.621 76.8711 204.62 76.8711C204.619 76.8711 204.617 76.8711 204.617 76.8711C204.616 76.8711 204.616 76.8711 204.615 76.8711C204.615 76.8711 204.614 76.8711 204.613 76.8711H204.612C204.611 76.8711 204.611 76.8711 204.61 76.8711C204.61 76.8711 204.609 76.8711 204.608 76.8711H204.607C204.606 76.8711 204.606 76.8711 204.605 76.8711C204.604 76.8711 204.604 76.8711 204.603 76.8711C204.602 76.8711 204.6 76.8711 204.6 76.8711C204.599 76.8711 204.599 76.8711 204.598 76.8711H204.597C204.596 76.8711 204.595 76.8711 204.595 76.8711C204.594 76.8711 204.594 76.8711 204.593 76.8711C204.593 76.8711 204.592 76.8711 204.591 76.8711H204.59C204.589 76.8711 204.589 76.8711 204.588 76.8711C204.587 76.8711 204.587 76.8711 204.586 76.8711C204.585 76.8711 204.584 76.8711 204.583 76.8711C204.582 76.8711 204.582 76.8711 204.581 76.8711C204.58 76.8711 204.578 76.8711 204.578 76.8711C204.577 76.8711 204.577 76.8711 204.576 76.8711C204.576 76.8711 204.575 76.8711 204.574 76.8711H204.573C204.572 76.8711 204.572 76.8711 204.571 76.8711C204.57 76.8711 204.57 76.8711 204.569 76.8711H204.568C204.567 76.8711 204.567 76.8711 204.566 76.8711C204.565 76.8711 204.565 76.8711 204.564 76.8711C204.563 76.8711 204.561 76.8711 204.561 76.8711C204.56 76.8711 204.56 76.8711 204.559 76.8711C204.559 76.8711 204.558 76.8711 204.557 76.8711H204.556C204.555 76.8711 204.555 76.8711 204.554 76.8711C204.553 76.8711 204.553 76.8711 204.552 76.8711H204.551C204.55 76.8711 204.549 76.8711 204.549 76.8711C204.548 76.8711 204.548 76.8711 204.547 76.8711C204.547 76.8711 204.546 76.8711 204.545 76.8711C204.544 76.8711 204.543 76.8711 204.542 76.8711C204.542 76.8711 204.541 76.8711 204.54 76.8711C204.539 76.8711 204.538 76.8711 204.537 76.8711C204.536 76.8711 204.536 76.8711 204.535 76.8711H204.534C204.533 76.8711 204.532 76.8711 204.532 76.8711C204.531 76.8711 204.531 76.8711 204.53 76.8711C204.53 76.8711 204.529 76.8711 204.528 76.8711H204.527C204.526 76.8711 204.526 76.8711 204.525 76.8711C204.524 76.8711 204.524 76.8711 204.523 76.8711C204.522 76.8711 204.52 76.8711 204.52 76.8711C204.519 76.8711 204.519 76.8711 204.518 76.8711C204.518 76.8711 204.517 76.8711 204.516 76.8711H204.515C204.514 76.8711 204.514 76.8711 204.513 76.8711C204.512 76.8711 204.512 76.8711 204.511 76.8711H204.51C204.509 76.8711 204.508 76.8711 204.508 76.8711C204.507 76.8711 204.507 76.8711 204.506 76.8711C204.506 76.8711 204.505 76.8711 204.504 76.8711C204.503 76.8711 204.502 76.8711 204.501 76.8711C204.5 76.8711 204.5 76.8711 204.499 76.8711C204.498 76.8711 204.496 76.8711 204.496 76.8711C204.495 76.8711 204.495 76.8711 204.494 76.8711C204.494 76.8711 204.493 76.8711 204.492 76.8711H204.491C204.49 76.8711 204.49 76.8711 204.489 76.8711C204.488 76.8711 204.488 76.8711 204.487 76.8711H204.486C204.485 76.8711 204.484 76.8711 204.484 76.8711C204.483 76.8711 204.483 76.8711 204.482 76.8711C204.482 76.8711 204.481 76.8711 204.48 76.8711C204.479 76.8711 204.478 76.8711 204.477 76.8711C204.476 76.8711 204.476 76.8711 204.475 76.8711H204.474C204.473 76.8711 204.472 76.8711 204.472 76.8711C204.471 76.8711 204.471 76.8711 204.47 76.8711C204.47 76.8711 204.469 76.8711 204.468 76.8711H204.467C204.466 76.8711 204.466 76.8711 204.465 76.8711C204.464 76.8711 204.464 76.8711 204.463 76.8711C204.462 76.8711 204.46 76.8711 204.46 76.8711C204.459 76.8711 204.459 76.8711 204.458 76.8711C204.458 76.8711 204.457 76.8711 204.456 76.8711C204.455 76.8711 204.454 76.8711 204.453 76.8711C204.452 76.8711 204.452 76.8711 204.451 76.8711C204.451 76.8711 204.45 76.8711 204.449 76.8711H204.448C204.447 76.8711 204.447 76.8711 204.446 76.8711C204.445 76.8711 204.445 76.8711 204.444 76.8711H204.443C204.442 76.8711 204.441 76.8711 204.441 76.8711C204.44 76.8711 204.44 76.8711 204.439 76.8711C204.439 76.8711 204.438 76.8711 204.437 76.8711C204.436 76.8711 204.435 76.8711 204.434 76.8711C204.433 76.8711 204.433 76.8711 204.432 76.8711H204.431C204.43 76.8711 204.429 76.8711 204.429 76.8711C204.428 76.8711 204.428 76.8711 204.427 76.8711C204.426 76.8711 204.426 76.8711 204.425 76.8711H204.424C204.423 76.8711 204.422 76.8711 204.422 76.8711C204.421 76.8711 204.421 76.8711 204.42 76.8711C204.42 76.8711 204.419 76.8711 204.418 76.8711C204.417 76.8711 204.416 76.8711 204.415 76.8711C204.414 76.8711 204.414 76.8711 204.413 76.8711C204.412 76.8711 204.41 76.8711 204.41 76.8711C204.409 76.8711 204.409 76.8711 204.408 76.8711C204.407 76.8711 204.407 76.8711 204.406 76.8711H204.405C204.404 76.8711 204.403 76.8711 204.403 76.8711C204.402 76.8711 204.402 76.8711 204.401 76.8711C204.401 76.8711 204.4 76.8711 204.399 76.8711H204.398C204.397 76.8711 204.397 76.8711 204.396 76.8711C204.395 76.8711 204.395 76.8711 204.394 76.8711C204.394 76.8711 204.393 76.8711 204.392 76.8711C204.391 76.8711 204.39 76.8711 204.389 76.8711C204.388 76.8711 204.388 76.8711 204.387 76.8711C204.386 76.8711 204.384 76.8711 204.384 76.8711C204.383 76.8711 204.383 76.8711 204.382 76.8711C204.382 76.8711 204.381 76.8711 204.38 76.8711H204.379C204.378 76.8711 204.377 76.8711 204.377 76.8711C204.376 76.8711 204.376 76.8711 204.375 76.8711C204.375 76.8711 204.374 76.8711 204.373 76.8711H204.372C204.371 76.8711 204.371 76.8711 204.37 76.8711C204.369 76.8711 204.369 76.8711 204.368 76.8711C204.368 76.8711 204.367 76.8711 204.366 76.8711C204.365 76.8711 204.364 76.8711 204.363 76.8711C204.362 76.8711 204.362 76.8711 204.361 76.8711C204.36 76.8711 204.358 76.8711 204.358 76.8711C204.357 76.8711 204.357 76.8711 204.356 76.8711C204.355 76.8711 204.355 76.8711 204.354 76.8711H204.353C204.352 76.8711 204.351 76.8711 204.351 76.8711C204.35 76.8711 204.35 76.8711 204.349 76.8711C204.349 76.8711 204.348 76.8711 204.347 76.8711H204.346C204.345 76.8711 204.344 76.8711 204.344 76.8711C204.343 76.8711 204.343 76.8711 204.342 76.8711C204.342 76.8711 204.341 76.8711 204.34 76.8711C204.339 76.8711 204.337 76.8711 204.337 76.8711C204.336 76.8711 204.336 76.8711 204.335 76.8711C204.335 76.8711 204.334 76.8711 204.333 76.8711C204.332 76.8711 204.331 76.8711 204.33 76.8711C204.329 76.8711 204.329 76.8711 204.328 76.8711C204.328 76.8711 204.327 76.8711 204.326 76.8711H204.325C204.324 76.8711 204.324 76.8711 204.323 76.8711C204.322 76.8711 204.322 76.8711 204.321 76.8711C204.321 76.8711 204.32 76.8711 204.319 76.8711H204.318C204.317 76.8711 204.317 76.8711 204.316 76.8711C204.315 76.8711 204.315 76.8711 204.314 76.8711C204.314 76.8711 204.313 76.8711 204.312 76.8711C204.311 76.8711 204.31 76.8711 204.309 76.8711C204.308 76.8711 204.308 76.8711 204.307 76.8711C204.307 76.8711 204.306 76.8711 204.305 76.8711C204.304 76.8711 204.303 76.8711 204.302 76.8711C204.301 76.8711 204.301 76.8711 204.3 76.8711H204.299C204.298 76.8711 204.297 76.8711 204.297 76.8711C204.296 76.8711 204.296 76.8711 204.295 76.8711C204.294 76.8711 204.294 76.8711 204.293 76.8711C204.292 76.8711 204.29 76.8711 204.29 76.8711C204.289 76.8711 204.289 76.8711 204.288 76.8711C204.287 76.8711 204.287 76.8711 204.286 76.8711C204.285 76.8711 204.283 76.8711 204.283 76.8711C204.282 76.8711 204.282 76.8711 204.281 76.8711C204.28 76.8711 204.28 76.8711 204.279 76.8711C204.279 76.8711 204.278 76.8711 204.277 76.8711C204.276 76.8711 204.275 76.8711 204.274 76.8711C204.273 76.8711 204.273 76.8711 204.272 76.8711C204.272 76.8711 204.271 76.8711 204.27 76.8711H204.269C204.268 76.8711 204.268 76.8711 204.267 76.8711C204.266 76.8711 204.266 76.8711 204.265 76.8711C204.265 76.8711 204.264 76.8711 204.263 76.8711H204.262V78.8711H204.263C204.264 78.8711 204.265 78.8711 204.265 78.8711C204.266 78.8711 204.266 78.8711 204.267 78.8711C204.268 78.8711 204.268 78.8711 204.269 78.8711H204.27C204.271 78.8711 204.272 78.8711 204.272 78.8711C204.273 78.8711 204.273 78.8711 204.274 78.8711C204.275 78.8711 204.275 78.8711 204.276 78.8711C204.277 78.8711 204.279 78.8711 204.279 78.8711C204.28 78.8711 204.28 78.8711 204.281 78.8711C204.282 78.8711 204.282 78.8711 204.283 78.8711C204.283 78.8711 204.284 78.8711 204.285 78.8711C204.286 78.8711 204.287 78.8711 204.288 78.8711C204.289 78.8711 204.289 78.8711 204.29 78.8711C204.29 78.8711 204.291 78.8711 204.292 78.8711C204.293 78.8711 204.294 78.8711 204.295 78.8711C204.296 78.8711 204.296 78.8711 204.297 78.8711C204.297 78.8711 204.298 78.8711 204.299 78.8711H204.3C204.301 78.8711 204.301 78.8711 204.302 78.8711C204.303 78.8711 204.303 78.8711 204.304 78.8711C204.305 78.8711 204.307 78.8711 204.307 78.8711C204.308 78.8711 204.308 78.8711 204.309 78.8711C204.31 78.8711 204.31 78.8711 204.311 78.8711C204.312 78.8711 204.314 78.8711 204.314 78.8711C204.315 78.8711 204.315 78.8711 204.316 78.8711C204.317 78.8711 204.317 78.8711 204.318 78.8711H204.319C204.32 78.8711 204.321 78.8711 204.321 78.8711C204.322 78.8711 204.322 78.8711 204.323 78.8711C204.324 78.8711 204.324 78.8711 204.325 78.8711H204.326C204.327 78.8711 204.328 78.8711 204.328 78.8711C204.329 78.8711 204.329 78.8711 204.33 78.8711C204.331 78.8711 204.331 78.8711 204.332 78.8711C204.333 78.8711 204.335 78.8711 204.335 78.8711C204.336 78.8711 204.336 78.8711 204.337 78.8711C204.337 78.8711 204.338 78.8711 204.339 78.8711C204.34 78.8711 204.342 78.8711 204.342 78.8711C204.343 78.8711 204.343 78.8711 204.344 78.8711C204.344 78.8711 204.345 78.8711 204.346 78.8711H204.347C204.348 78.8711 204.349 78.8711 204.349 78.8711C204.35 78.8711 204.35 78.8711 204.351 78.8711C204.351 78.8711 204.352 78.8711 204.353 78.8711H204.354C204.355 78.8711 204.355 78.8711 204.356 78.8711C204.357 78.8711 204.357 78.8711 204.358 78.8711C204.358 78.8711 204.359 78.8711 204.36 78.8711C204.361 78.8711 204.362 78.8711 204.363 78.8711C204.364 78.8711 204.364 78.8711 204.365 78.8711C204.366 78.8711 204.368 78.8711 204.368 78.8711C204.369 78.8711 204.369 78.8711 204.37 78.8711C204.371 78.8711 204.371 78.8711 204.372 78.8711H204.373C204.374 78.8711 204.375 78.8711 204.375 78.8711C204.376 78.8711 204.376 78.8711 204.377 78.8711C204.377 78.8711 204.378 78.8711 204.379 78.8711H204.38C204.381 78.8711 204.382 78.8711 204.382 78.8711C204.383 78.8711 204.383 78.8711 204.384 78.8711C204.384 78.8711 204.385 78.8711 204.386 78.8711C204.387 78.8711 204.388 78.8711 204.389 78.8711C204.39 78.8711 204.39 78.8711 204.391 78.8711C204.392 78.8711 204.394 78.8711 204.394 78.8711C204.395 78.8711 204.395 78.8711 204.396 78.8711C204.397 78.8711 204.397 78.8711 204.398 78.8711H204.399C204.4 78.8711 204.401 78.8711 204.401 78.8711C204.402 78.8711 204.402 78.8711 204.403 78.8711C204.403 78.8711 204.404 78.8711 204.405 78.8711H204.406C204.407 78.8711 204.407 78.8711 204.408 78.8711C204.409 78.8711 204.409 78.8711 204.41 78.8711C204.41 78.8711 204.411 78.8711 204.412 78.8711C204.413 78.8711 204.414 78.8711 204.415 78.8711C204.416 78.8711 204.416 78.8711 204.417 78.8711C204.418 78.8711 204.42 78.8711 204.42 78.8711C204.421 78.8711 204.421 78.8711 204.422 78.8711C204.422 78.8711 204.423 78.8711 204.424 78.8711H204.425C204.426 78.8711 204.426 78.8711 204.427 78.8711C204.428 78.8711 204.428 78.8711 204.429 78.8711C204.429 78.8711 204.43 78.8711 204.431 78.8711H204.432C204.433 78.8711 204.433 78.8711 204.434 78.8711C204.435 78.8711 204.435 78.8711 204.436 78.8711C204.437 78.8711 204.439 78.8711 204.439 78.8711C204.44 78.8711 204.44 78.8711 204.441 78.8711C204.441 78.8711 204.442 78.8711 204.443 78.8711H204.444C204.445 78.8711 204.445 78.8711 204.446 78.8711C204.447 78.8711 204.447 78.8711 204.448 78.8711H204.449C204.45 78.8711 204.451 78.8711 204.451 78.8711C204.452 78.8711 204.452 78.8711 204.453 78.8711C204.454 78.8711 204.454 78.8711 204.455 78.8711C204.456 78.8711 204.458 78.8711 204.458 78.8711C204.459 78.8711 204.459 78.8711 204.46 78.8711C204.46 78.8711 204.461 78.8711 204.462 78.8711C204.463 78.8711 204.464 78.8711 204.465 78.8711C204.466 78.8711 204.466 78.8711 204.467 78.8711H204.468C204.469 78.8711 204.47 78.8711 204.47 78.8711C204.471 78.8711 204.471 78.8711 204.472 78.8711C204.472 78.8711 204.473 78.8711 204.474 78.8711H204.475C204.476 78.8711 204.476 78.8711 204.477 78.8711C204.478 78.8711 204.478 78.8711 204.479 78.8711C204.48 78.8711 204.482 78.8711 204.482 78.8711C204.483 78.8711 204.483 78.8711 204.484 78.8711C204.484 78.8711 204.485 78.8711 204.486 78.8711H204.487C204.488 78.8711 204.488 78.8711 204.489 78.8711C204.49 78.8711 204.49 78.8711 204.491 78.8711H204.492C204.493 78.8711 204.494 78.8711 204.494 78.8711C204.495 78.8711 204.495 78.8711 204.496 78.8711C204.496 78.8711 204.497 78.8711 204.498 78.8711C204.499 78.8711 204.5 78.8711 204.501 78.8711C204.502 78.8711 204.502 78.8711 204.503 78.8711C204.504 78.8711 204.506 78.8711 204.506 78.8711C204.507 78.8711 204.507 78.8711 204.508 78.8711C204.508 78.8711 204.509 78.8711 204.51 78.8711H204.511C204.512 78.8711 204.512 78.8711 204.513 78.8711C204.514 78.8711 204.514 78.8711 204.515 78.8711H204.516C204.517 78.8711 204.518 78.8711 204.518 78.8711C204.519 78.8711 204.519 78.8711 204.52 78.8711C204.52 78.8711 204.521 78.8711 204.522 78.8711C204.523 78.8711 204.524 78.8711 204.525 78.8711C204.526 78.8711 204.526 78.8711 204.527 78.8711H204.528C204.529 78.8711 204.53 78.8711 204.53 78.8711C204.531 78.8711 204.531 78.8711 204.532 78.8711C204.532 78.8711 204.533 78.8711 204.534 78.8711H204.535C204.536 78.8711 204.536 78.8711 204.537 78.8711C204.538 78.8711 204.538 78.8711 204.539 78.8711C204.54 78.8711 204.542 78.8711 204.542 78.8711C204.543 78.8711 204.543 78.8711 204.544 78.8711C204.545 78.8711 204.547 78.8711 204.547 78.8711C204.548 78.8711 204.548 78.8711 204.549 78.8711C204.549 78.8711 204.55 78.8711 204.551 78.8711H204.552C204.553 78.8711 204.553 78.8711 204.554 78.8711C204.555 78.8711 204.555 78.8711 204.556 78.8711H204.557C204.558 78.8711 204.559 78.8711 204.559 78.8711C204.56 78.8711 204.56 78.8711 204.561 78.8711C204.561 78.8711 204.562 78.8711 204.563 78.8711C204.564 78.8711 204.565 78.8711 204.566 78.8711C204.567 78.8711 204.567 78.8711 204.568 78.8711H204.569C204.57 78.8711 204.57 78.8711 204.571 78.8711C204.572 78.8711 204.572 78.8711 204.573 78.8711H204.574C204.575 78.8711 204.576 78.8711 204.576 78.8711C204.577 78.8711 204.577 78.8711 204.578 78.8711C204.578 78.8711 204.579 78.8711 204.58 78.8711C204.581 78.8711 204.582 78.8711 204.583 78.8711C204.584 78.8711 204.584 78.8711 204.585 78.8711C204.586 78.8711 204.587 78.8711 204.588 78.8711C204.589 78.8711 204.589 78.8711 204.59 78.8711H204.591C204.592 78.8711 204.593 78.8711 204.593 78.8711C204.594 78.8711 204.594 78.8711 204.595 78.8711C204.595 78.8711 204.596 78.8711 204.597 78.8711H204.598C204.599 78.8711 204.599 78.8711 204.6 78.8711C204.6 78.8711 204.601 78.8711 204.602 78.8711C204.603 78.8711 204.604 78.8711 204.605 78.8711C204.606 78.8711 204.606 78.8711 204.607 78.8711H204.608C204.609 78.8711 204.61 78.8711 204.61 78.8711C204.611 78.8711 204.611 78.8711 204.612 78.8711H204.613C204.614 78.8711 204.615 78.8711 204.615 78.8711C204.616 78.8711 204.616 78.8711 204.617 78.8711C204.617 78.8711 204.618 78.8711 204.619 78.8711C204.62 78.8711 204.621 78.8711 204.622 78.8711C204.623 78.8711 204.623 78.8711 204.624 78.8711H204.625C204.626 78.8711 204.626 78.8711 204.627 78.8711C204.628 78.8711 204.628 78.8711 204.629 78.8711H204.63C204.631 78.8711 204.632 78.8711 204.632 78.8711C204.633 78.8711 204.633 78.8711 204.634 78.8711C204.635 78.8711 204.637 78.8711 204.637 78.8711C204.638 78.8711 204.638 78.8711 204.639 78.8711C204.639 78.8711 204.64 78.8711 204.641 78.8711C204.642 78.8711 204.643 78.8711 204.644 78.8711C204.645 78.8711 204.645 78.8711 204.646 78.8711H204.647C204.648 78.8711 204.648 78.8711 204.649 78.8711C204.65 78.8711 204.65 78.8711 204.651 78.8711C204.652 78.8711 204.653 78.8711 204.654 78.8711C204.655 78.8711 204.655 78.8711 204.656 78.8711C204.657 78.8711 204.659 78.8711 204.659 78.8711C204.66 78.8711 204.66 78.8711 204.661 78.8711H204.662C204.663 78.8711 204.664 78.8711 204.664 78.8711C204.665 78.8711 204.665 78.8711 204.666 78.8711C204.666 78.8711 204.667 78.8711 204.668 78.8711H204.669C204.67 78.8711 204.67 78.8711 204.671 78.8711C204.671 78.8711 204.672 78.8711 204.673 78.8711C204.674 78.8711 204.675 78.8711 204.676 78.8711C204.677 78.8711 204.677 78.8711 204.678 78.8711H204.679C204.68 78.8711 204.68 78.8711 204.681 78.8711C204.682 78.8711 204.682 78.8711 204.683 78.8711H204.684C204.685 78.8711 204.685 78.8711 204.686 78.8711C204.687 78.8711 204.687 78.8711 204.688 78.8711C204.689 78.8711 204.691 78.8711 204.691 78.8711C204.692 78.8711 204.692 78.8711 204.693 78.8711H204.694C204.695 78.8711 204.696 78.8711 204.696 78.8711C204.697 78.8711 204.697 78.8711 204.698 78.8711H204.699C204.7 78.8711 204.701 78.8711 204.701 78.8711C204.702 78.8711 204.702 78.8711 204.703 78.8711C204.703 78.8711 204.704 78.8711 204.705 78.8711C204.706 78.8711 204.707 78.8711 204.708 78.8711C204.708 78.8711 204.709 78.8711 204.71 78.8711C204.711 78.8711 204.712 78.8711 204.713 78.8711C204.713 78.8711 204.714 78.8711 204.715 78.8711H204.716C204.717 78.8711 204.717 78.8711 204.718 78.8711C204.719 78.8711 204.719 78.8711 204.72 78.8711C204.721 78.8711 204.722 78.8711 204.723 78.8711C204.724 78.8711 204.724 78.8711 204.725 78.8711C204.726 78.8711 204.727 78.8711 204.728 78.8711C204.729 78.8711 204.729 78.8711 204.73 78.8711H204.731C204.732 78.8711 204.732 78.8711 204.733 78.8711C204.734 78.8711 204.734 78.8711 204.735 78.8711C204.736 78.8711 204.737 78.8711 204.738 78.8711C204.739 78.8711 204.739 78.8711 204.74 78.8711C204.741 78.8711 204.742 78.8711 204.743 78.8711C204.744 78.8711 204.744 78.8711 204.745 78.8711H204.746C204.747 78.8711 204.747 78.8711 204.748 78.8711C204.749 78.8711 204.749 78.8711 204.75 78.8711H204.751C204.752 78.8711 204.753 78.8711 204.753 78.8711C204.754 78.8711 204.754 78.8711 204.755 78.8711C204.756 78.8711 204.758 78.8711 204.758 78.8711C204.759 78.8711 204.759 78.8711 204.76 78.8711H204.761C204.762 78.8711 204.763 78.8711 204.763 78.8711C204.764 78.8711 204.764 78.8711 204.765 78.8711H204.766C204.767 78.8711 204.768 78.8711 204.768 78.8711C204.769 78.8711 204.769 78.8711 204.77 78.8711C204.771 78.8711 204.773 78.8711 204.773 78.8711C204.774 78.8711 204.774 78.8711 204.775 78.8711H204.776C204.777 78.8711 204.778 78.8711 204.778 78.8711C204.779 78.8711 204.779 78.8711 204.78 78.8711H204.781C204.782 78.8711 204.783 78.8711 204.783 78.8711C204.784 78.8711 204.784 78.8711 204.785 78.8711C204.786 78.8711 204.787 78.8711 204.788 78.8711C204.789 78.8711 204.789 78.8711 204.79 78.8711H204.791C204.792 78.8711 204.792 78.8711 204.793 78.8711C204.794 78.8711 204.794 78.8711 204.795 78.8711H204.796C204.797 78.8711 204.797 78.8711 204.798 78.8711C204.799 78.8711 204.799 78.8711 204.8 78.8711C204.801 78.8711 204.802 78.8711 204.803 78.8711C204.804 78.8711 204.804 78.8711 204.805 78.8711H204.806C204.807 78.8711 204.807 78.8711 204.808 78.8711C204.809 78.8711 204.809 78.8711 204.81 78.8711H204.811C204.812 78.8711 204.812 78.8711 204.813 78.8711C204.814 78.8711 204.814 78.8711 204.815 78.8711C204.816 78.8711 204.817 78.8711 204.818 78.8711C204.818 78.8711 204.819 78.8711 204.82 78.8711C204.821 78.8711 204.822 78.8711 204.823 78.8711C204.823 78.8711 204.824 78.8711 204.825 78.8711H204.826C204.827 78.8711 204.827 78.8711 204.828 78.8711C204.828 78.8711 204.829 78.8711 204.83 78.8711C204.831 78.8711 204.832 78.8711 204.833 78.8711C204.833 78.8711 204.834 78.8711 204.835 78.8711C204.836 78.8711 204.837 78.8711 204.838 78.8711H204.839C204.84 78.8711 204.841 78.8711 204.841 78.8711C204.842 78.8711 204.842 78.8711 204.843 78.8711C204.844 78.8711 204.846 78.8711 204.846 78.8711C204.847 78.8711 204.847 78.8711 204.848 78.8711C204.849 78.8711 204.85 78.8711 204.851 78.8711C204.852 78.8711 204.852 78.8711 204.853 78.8711H204.854C204.855 78.8711 204.855 78.8711 204.856 78.8711C204.857 78.8711 204.857 78.8711 204.858 78.8711C204.859 78.8711 204.86 78.8711 204.861 78.8711C204.861 78.8711 204.862 78.8711 204.863 78.8711C204.864 78.8711 204.865 78.8711 204.866 78.8711C204.866 78.8711 204.867 78.8711 204.868 78.8711H204.869C204.87 78.8711 204.87 78.8711 204.871 78.8711C204.872 78.8711 204.874 78.8711 204.874 78.8711C204.875 78.8711 204.875 78.8711 204.876 78.8711C204.877 78.8711 204.879 78.8711 204.879 78.8711C204.88 78.8711 204.88 78.8711 204.881 78.8711H204.882C204.883 78.8711 204.883 78.8711 204.884 78.8711C204.885 78.8711 204.885 78.8711 204.886 78.8711C204.887 78.8711 204.888 78.8711 204.889 78.8711C204.889 78.8711 204.89 78.8711 204.891 78.8711C204.892 78.8711 204.893 78.8711 204.894 78.8711C204.894 78.8711 204.895 78.8711 204.896 78.8711H204.897C204.898 78.8711 204.898 78.8711 204.899 78.8711C204.9 78.8711 204.902 78.8711 204.902 78.8711C204.903 78.8711 204.903 78.8711 204.904 78.8711C204.905 78.8711 204.906 78.8711 204.907 78.8711C204.908 78.8711 204.908 78.8711 204.909 78.8711H204.91C204.911 78.8711 204.911 78.8711 204.912 78.8711C204.912 78.8711 204.913 78.8711 204.914 78.8711C204.915 78.8711 204.916 78.8711 204.917 78.8711C204.918 78.8711 204.92 78.8711 204.92 78.8711C204.921 78.8711 204.921 78.8711 204.922 78.8711H204.923C204.924 78.8711 204.924 78.8711 204.925 78.8711C204.926 78.8711 204.926 78.8711 204.927 78.8711C204.928 78.8711 204.929 78.8711 204.93 78.8711C204.931 78.8711 204.931 78.8711 204.932 78.8711C204.933 78.8711 204.934 78.8711 204.935 78.8711C204.935 78.8711 204.936 78.8711 204.937 78.8711H204.938C204.939 78.8711 204.939 78.8711 204.94 78.8711C204.941 78.8711 204.943 78.8711 204.943 78.8711C204.944 78.8711 204.944 78.8711 204.945 78.8711C204.946 78.8711 204.947 78.8711 204.948 78.8711C204.949 78.8711 204.949 78.8711 204.95 78.8711H204.951C204.952 78.8711 204.952 78.8711 204.953 78.8711C204.954 78.8711 204.956 78.8711 204.956 78.8711C204.957 78.8711 204.957 78.8711 204.958 78.8711H204.959C204.96 78.8711 204.96 78.8711 204.961 78.8711C204.962 78.8711 204.962 78.8711 204.963 78.8711H204.964C204.965 78.8711 204.965 78.8711 204.966 78.8711C204.966 78.8711 204.967 78.8711 204.968 78.8711C204.969 78.8711 204.97 78.8711 204.971 78.8711H204.972C204.973 78.8711 204.974 78.8711 204.974 78.8711C204.975 78.8711 204.975 78.8711 204.976 78.8711H204.977C204.978 78.8711 204.978 78.8711 204.979 78.8711C204.979 78.8711 204.98 78.8711 204.981 78.8711C204.982 78.8711 204.983 78.8711 204.984 78.8711H204.985C204.986 78.8711 204.987 78.8711 204.987 78.8711C204.988 78.8711 204.988 78.8711 204.989 78.8711H204.99C204.991 78.8711 204.991 78.8711 204.992 78.8711C204.993 78.8711 204.993 78.8711 204.994 78.8711C204.995 78.8711 204.996 78.8711 204.997 78.8711H204.998C204.999 78.8711 205 78.8711 205 78.8711C205.001 78.8711 205.001 78.8711 205.002 78.8711H205.003C205.004 78.8711 205.004 78.8711 205.005 78.8711C205.006 78.8711 205.006 78.8711 205.007 78.8711C205.008 78.8711 205.009 78.8711 205.01 78.8711H205.011C205.012 78.8711 205.013 78.8711 205.013 78.8711C205.014 78.8711 205.014 78.8711 205.015 78.8711H205.016C205.017 78.8711 205.017 78.8711 205.018 78.8711C205.018 78.8711 205.019 78.8711 205.02 78.8711C205.021 78.8711 205.022 78.8711 205.023 78.8711H205.024C205.025 78.8711 205.026 78.8711 205.026 78.8711C205.027 78.8711 205.027 78.8711 205.028 78.8711H205.029C205.03 78.8711 205.03 78.8711 205.031 78.8711C205.031 78.8711 205.032 78.8711 205.033 78.8711C205.034 78.8711 205.035 78.8711 205.036 78.8711H205.037C205.038 78.8711 205.038 78.8711 205.039 78.8711C205.04 78.8711 205.04 78.8711 205.041 78.8711H205.042C205.043 78.8711 205.043 78.8711 205.044 78.8711C205.045 78.8711 205.047 78.8711 205.047 78.8711C205.048 78.8711 205.048 78.8711 205.049 78.8711H205.05C205.051 78.8711 205.051 78.8711 205.052 78.8711C205.052 78.8711 205.053 78.8711 205.054 78.8711C205.055 78.8711 205.056 78.8711 205.057 78.8711C205.058 78.8711 205.059 78.8711 205.06 78.8711C205.061 78.8711 205.061 78.8711 205.062 78.8711H205.063C205.064 78.8711 205.064 78.8711 205.065 78.8711C205.066 78.8711 205.068 78.8711 205.068 78.8711C205.069 78.8711 205.069 78.8711 205.07 78.8711C205.071 78.8711 205.072 78.8711 205.073 78.8711C205.073 78.8711 205.074 78.8711 205.075 78.8711H205.076C205.077 78.8711 205.077 78.8711 205.078 78.8711C205.079 78.8711 205.08 78.8711 205.081 78.8711C205.081 78.8711 205.082 78.8711 205.083 78.8711H205.084C205.085 78.8711 205.085 78.8711 205.086 78.8711H205.087C205.088 78.8711 205.088 78.8711 205.089 78.8711C205.09 78.8711 205.09 78.8711 205.091 78.8711C205.092 78.8711 205.093 78.8711 205.094 78.8711H205.095C205.096 78.8711 205.096 78.8711 205.097 78.8711C205.098 78.8711 205.098 78.8711 205.099 78.8711H205.1C205.101 78.8711 205.101 78.8711 205.102 78.8711C205.103 78.8711 205.105 78.8711 205.105 78.8711C205.106 78.8711 205.106 78.8711 205.107 78.8711H205.108C205.109 78.8711 205.109 78.8711 205.11 78.8711C205.111 78.8711 205.113 78.8711 205.113 78.8711C205.114 78.8711 205.114 78.8711 205.115 78.8711C205.116 78.8711 205.117 78.8711 205.118 78.8711H205.119C205.12 78.8711 205.121 78.8711 205.121 78.8711V76.8711ZM204.262 76.8711H187.094V78.8711H204.262V76.8711ZM186.094 77.8711V90H188.094V77.8711H186.094ZM187.094 89H183.344V91H187.094V89ZM184.344 90V60H182.344V90H184.344ZM187.094 75.6289H203.676V73.6289H187.094V75.6289ZM203.676 75.6289C205.917 75.6289 207.711 75.5572 209.041 75.4079L208.818 73.4203C207.596 73.5574 205.888 73.6289 203.676 73.6289V75.6289ZM209.05 75.4068C210.383 75.2452 211.506 74.9567 212.295 74.4592L211.228 72.7674C210.82 73.0251 210.054 73.2704 208.809 73.4213L209.05 75.4068ZM212.287 74.4643C213.119 73.9508 213.672 73.1984 213.905 72.2499L211.962 71.7735C211.856 72.2053 211.628 72.5206 211.237 72.7622L212.287 74.4643ZM213.905 72.2499C214.101 71.452 214.188 70.4718 214.188 69.3359H212.188C212.188 70.3875 212.105 71.1913 211.962 71.7735L213.905 72.2499ZM214.188 69.3359V68.5547H212.188V69.3359H214.188ZM214.188 68.5547C214.188 67.2707 214.068 66.1742 213.786 65.314L211.886 65.936C212.073 66.5081 212.188 67.3648 212.188 68.5547H214.188ZM213.786 65.314C213.464 64.3288 212.802 63.5939 211.864 63.142L210.996 64.944C211.464 65.1691 211.739 65.4889 211.886 65.936L213.786 65.314ZM211.864 63.142C210.987 62.7201 209.787 62.4945 208.35 62.4006L208.22 64.3963C209.57 64.4846 210.466 64.6888 210.996 64.944L211.864 63.142ZM208.36 62.4012C206.931 62.2944 205.041 62.2422 202.699 62.2422V64.2422C205.019 64.2422 206.853 64.2942 208.211 64.3957L208.36 62.4012ZM202.699 62.2422H187.094V64.2422H202.699V62.2422ZM186.094 63.2422V74.6289H188.094V63.2422H186.094ZM224.047 90H223.047V91H224.047V90ZM224.047 60V59H223.047V60H224.047ZM227.797 60H228.797V59H227.797V60ZM227.797 90V91H228.797V90H227.797ZM225.047 90V60H223.047V90H225.047ZM224.047 61H227.797V59H224.047V61ZM226.797 60V90H228.797V60H226.797ZM227.797 89H224.047V91H227.797V89ZM235.297 90H234.297V91H235.297V90ZM235.297 60V59H234.297V60H235.297ZM239.203 60L239.847 59.235L239.568 59H239.203V60ZM269.34 85.3711L268.696 86.1361L268.975 86.3711H269.34V85.3711ZM269.379 85.3711V86.3711H270.379V85.3711H269.379ZM269.379 60V59H268.379V60H269.379ZM273.129 60H274.129V59H273.129V60ZM273.129 90V91H274.129V90H273.129ZM269.223 90L268.575 90.7623L268.855 91H269.223V90ZM239.086 64.4141L239.733 63.6517L239.453 63.4141H239.086V64.4141ZM239.047 64.4141V63.4141H238.047V64.4141H239.047ZM239.047 90V91H240.047V90H239.047ZM236.297 90V60H234.297V90H236.297ZM235.297 61H239.203V59H235.297V61ZM238.559 60.765L268.696 86.1361L269.984 84.6061L239.847 59.235L238.559 60.765ZM269.34 86.3711H269.379V84.3711H269.34V86.3711ZM270.379 85.3711V60H268.379V85.3711H270.379ZM269.379 61H273.129V59H269.379V61ZM272.129 60V90H274.129V60H272.129ZM273.129 89H269.223V91H273.129V89ZM269.87 89.2377L239.733 63.6517L238.439 65.1764L268.575 90.7623L269.87 89.2377ZM239.086 63.4141H239.047V65.4141H239.086V63.4141ZM238.047 64.4141V90H240.047V64.4141H238.047ZM239.047 89H235.297V91H239.047V89ZM283.734 60.918L283.258 60.0385L283.254 60.0409L283.734 60.918ZM287.895 59.707L288.019 60.6993L288.026 60.6983L287.895 59.707ZM308.734 59.7266L308.613 60.7191L308.614 60.7192L308.734 59.7266ZM313.168 61.0742L312.626 61.9144L312.63 61.9174L313.168 61.0742ZM315.316 63.9844L314.36 64.2771L314.361 64.2798L315.316 63.9844ZM315.902 68.9648V69.9648H316.902V68.9648H315.902ZM312.152 68.9648H311.152V69.9648H312.152V68.9648ZM311.742 65.3516L310.788 65.6507L310.789 65.6548L311.742 65.3516ZM310.199 63.4766L309.74 64.3649L309.752 64.371L310.199 63.4766ZM306.898 62.7539L306.835 63.7519H306.836L306.898 62.7539ZM289.203 62.793L289.284 63.7897L289.295 63.7888L289.203 62.793ZM286.078 63.5547L286.519 64.4521L286.525 64.4491L286.078 63.5547ZM284.242 65.4297L283.348 64.9824L283.342 64.9934L284.242 65.4297ZM284.242 84.3945L283.34 84.8255L283.345 84.8364L284.242 84.3945ZM286.078 86.3477L285.602 87.2272L285.608 87.2304L286.078 86.3477ZM307.758 87.1289L307.885 88.1208L307.895 88.1194L307.758 87.1289ZM310.746 85.9961L311.392 86.7595L311.393 86.7584L310.746 85.9961ZM312.133 83.3398L313.114 83.5339V83.5319L312.133 83.3398ZM312.484 77.3438H313.484V76.3438H312.484V77.3438ZM298.129 77.3438H297.129V78.3438H298.129V77.3438ZM298.129 74.2188V73.2188H297.129V74.2188H298.129ZM316.234 74.2188H317.234V73.2188H316.234V74.2188ZM313.402 88.3789L314.048 89.1423L314.049 89.1416L313.402 88.3789ZM309.223 90.1367L309.049 89.1519L309.041 89.1534L309.223 90.1367ZM286.684 90.0195L286.893 89.0416L286.886 89.0403L286.684 90.0195ZM282.25 87.832L281.539 88.5348L281.543 88.5391L282.25 87.832ZM280.023 83.2227L279.044 83.4261L279.046 83.4322L280.023 83.2227ZM280.398 75.3906V74.6094H278.398V75.3906H280.398ZM280.398 74.6094C280.398 71.9813 280.528 69.8063 280.779 68.0731L278.799 67.7863C278.53 69.6469 278.398 71.9249 278.398 74.6094H280.398ZM280.779 68.0731C281.028 66.3396 281.45 64.9972 282.008 64.0064L280.265 63.0249C279.547 64.2997 279.071 65.8999 278.799 67.7863L280.779 68.0731ZM282.008 64.0064C282.558 63.0291 283.292 62.3004 284.215 61.7951L283.254 60.0409C281.989 60.7335 280.991 61.7366 280.265 63.0249L282.008 64.0064ZM284.21 61.7974C285.178 61.2738 286.436 60.8971 288.019 60.6993L287.771 58.7148C286.019 58.9336 284.504 59.3642 283.258 60.0385L284.21 61.7974ZM288.026 60.6983C289.636 60.4845 291.595 60.375 293.91 60.375V58.375C291.538 58.375 289.486 58.4868 287.763 58.7157L288.026 60.6983ZM293.91 60.375H301.254V58.375H293.91V60.375ZM301.254 60.375C304.307 60.375 306.755 60.4917 308.613 60.7191L308.856 58.734C306.885 58.4927 304.347 58.375 301.254 58.375V60.375ZM308.614 60.7192C310.469 60.9449 311.777 61.3666 312.626 61.9144L313.71 60.2341C312.501 59.4537 310.855 58.9771 308.856 58.734L308.614 60.7192ZM312.63 61.9174C313.455 62.443 314.033 63.2088 314.36 64.2771L316.273 63.6917C315.818 62.2079 314.964 61.0336 313.706 60.231L312.63 61.9174ZM314.361 64.2798C314.71 65.4094 314.902 66.9586 314.902 68.9648H316.902C316.902 66.8565 316.704 65.0854 316.272 63.6889L314.361 64.2798ZM315.902 67.9648H312.152V69.9648H315.902V67.9648ZM313.152 68.9648C313.152 67.3751 313.014 66.0515 312.695 65.0484L310.789 65.6548C311.017 66.3704 311.152 67.4556 311.152 68.9648H313.152ZM312.696 65.0525C312.349 63.9448 311.666 63.0919 310.646 62.5821L309.752 64.371C310.243 64.6165 310.588 65.0136 310.788 65.6507L312.696 65.0525ZM310.659 62.5883C309.723 62.1043 308.461 61.8505 306.961 61.7559L306.836 63.7519C308.226 63.8396 309.165 64.0677 309.74 64.3649L310.659 62.5883ZM306.962 61.7559C305.5 61.6629 303.595 61.6172 301.254 61.6172V63.6172C303.575 63.6172 305.433 63.6627 306.835 63.7519L306.962 61.7559ZM301.254 61.6172H293.91V63.6172H301.254V61.6172ZM293.91 61.6172C292.03 61.6172 290.428 61.6762 289.112 61.7972L289.295 63.7888C290.53 63.6753 292.066 63.6172 293.91 63.6172V61.6172ZM289.122 61.7963C287.768 61.9068 286.59 62.1809 285.631 62.6603L286.525 64.4491C287.181 64.1212 288.087 63.8874 289.284 63.7897L289.122 61.7963ZM285.637 62.6573C284.629 63.1528 283.866 63.9452 283.348 64.9824L285.137 65.8769C285.477 65.1953 285.938 64.7379 286.519 64.4521L285.637 62.6573ZM283.342 64.9934C282.855 65.9987 282.551 67.2985 282.388 68.8406L284.377 69.05C284.527 67.6234 284.796 66.5795 285.142 65.866L283.342 64.9934ZM282.388 68.8406C282.227 70.3729 282.148 72.2991 282.148 74.6094H284.148C284.148 72.3363 284.226 70.4864 284.377 69.05L282.388 68.8406ZM282.148 74.6094V75.3906H284.148V74.6094H282.148ZM282.148 75.3906C282.148 77.6238 282.227 79.4983 282.388 81.005L284.377 80.7919C284.226 79.3819 284.148 77.5845 284.148 75.3906H282.148ZM282.388 81.005C282.551 82.5238 282.856 83.8125 283.34 84.8255L285.145 83.9636C284.795 83.2318 284.527 82.1897 284.377 80.7919L282.388 81.005ZM283.345 84.8364C283.859 85.8797 284.611 86.6911 285.602 87.2272L286.554 85.4681C285.956 85.1448 285.485 84.6541 285.139 83.9527L283.345 84.8364ZM285.608 87.2304C286.566 87.7402 287.745 88.0439 289.102 88.1823L289.305 86.1927C288.109 86.0707 287.205 85.8145 286.548 85.4649L285.608 87.2304ZM289.102 88.1823C290.423 88.3171 292.028 88.3828 293.91 88.3828V86.3828C292.068 86.3828 290.536 86.3183 289.305 86.1927L289.102 88.1823ZM293.91 88.3828H302.562V86.3828H293.91V88.3828ZM302.562 88.3828C304.731 88.3828 306.51 88.2978 307.885 88.1208L307.63 86.1371C306.375 86.2986 304.691 86.3828 302.562 86.3828V88.3828ZM307.895 88.1194C309.311 87.9232 310.515 87.5013 311.392 86.7595L310.1 85.2327C309.623 85.6367 308.835 85.97 307.621 86.1384L307.895 88.1194ZM311.393 86.7584C312.306 85.9838 312.85 84.8664 313.114 83.5339L311.152 83.1458C310.947 84.1831 310.567 84.8365 310.099 85.2338L311.393 86.7584ZM313.114 83.5319C313.366 82.2429 313.484 80.5554 313.484 78.4961H311.484C311.484 80.4993 311.368 82.041 311.151 83.1478L313.114 83.5319ZM313.484 78.4961V77.3438H311.484V78.4961H313.484ZM312.484 76.3438H298.129V78.3438H312.484V76.3438ZM299.129 77.3438V74.2188H297.129V77.3438H299.129ZM298.129 75.2188H316.234V73.2188H298.129V75.2188ZM315.234 74.2188V78.4961H317.234V74.2188H315.234ZM315.234 78.4961C315.234 80.9892 315.022 82.9559 314.625 84.4264L316.555 84.9486C317.017 83.2421 317.234 81.0811 317.234 78.4961H315.234ZM314.625 84.4264C314.236 85.863 313.598 86.9014 312.756 87.6163L314.049 89.1416C315.264 88.1116 316.084 86.6891 316.555 84.9486L314.625 84.4264ZM312.756 87.6163C311.915 88.3281 310.704 88.8598 309.049 89.1519L309.396 91.1215C311.283 90.7887 312.858 90.1492 314.048 89.1423L312.756 87.6163ZM309.041 89.1534C307.365 89.4638 305.211 89.625 302.562 89.625V91.625C305.279 91.625 307.565 91.4607 309.405 91.12L309.041 89.1534ZM302.562 89.625H293.91V91.625H302.562V89.625ZM293.91 89.625C291.019 89.625 288.686 89.4251 286.893 89.0416L286.475 90.9974C288.457 91.4212 290.942 91.625 293.91 91.625V89.625ZM286.886 89.0403C285.137 88.6783 283.853 88.021 282.957 87.1249L281.543 88.5391C282.782 89.7785 284.454 90.5795 286.481 90.9988L286.886 89.0403ZM282.961 87.1293C282.081 86.2384 281.405 84.898 281.001 83.0131L279.046 83.4322C279.501 85.5577 280.309 87.2902 281.539 88.5348L282.961 87.1293ZM281.003 83.0192C280.605 81.1075 280.398 78.5724 280.398 75.3906H278.398C278.398 78.6412 278.608 81.3274 279.044 83.4261L281.003 83.0192Z" fill="white"/>
</g>
<defs>
<linearGradient id="paint0_linear_641_24" x1="26" y1="72.5" x2="320" y2="72.5" gradientUnits="userSpaceOnUse">
<stop stop-color="#68A5ED"/>
<stop offset="1" stop-color="#3B5E87"/>
</linearGradient>
<clipPath id="clip0_641_24">
<rect width="127" height="114" fill="white" transform="translate(168 16)"/>
</clipPath>
</defs>
</svg>
