<svg width="1436" height="1176" xmlns="http://www.w3.org/2000/svg" xmlns:xlink="http://www.w3.org/1999/xlink" xml:space="preserve" overflow="hidden"><g transform="translate(-1537 -718)"><path d="M1540.5 1306C1540.5 983.19 1802.19 721.5 2125 721.5 2447.81 721.5 2709.5 983.19 2709.5 1306 2709.5 1628.81 2447.81 1890.5 2125 1890.5 1802.19 1890.5 1540.5 1628.81 1540.5 1306ZM1621.93 1306C1621.93 1583.84 1847.16 1809.07 2125 1809.07 2402.84 1809.07 2628.07 1583.84 2628.07 1306 2628.07 1028.16 2402.84 802.932 2125 802.932 1847.16 802.932 1621.93 1028.16 1621.93 1306Z" stroke="#000000" stroke-width="6.875" stroke-miterlimit="8" fill="#FFFFFF" fill-rule="evenodd"/><path d="M2125.5 1144C2125.5 910.66 2314.44 721.5 2547.5 721.5 2780.56 721.5 2969.5 910.66 2969.5 1144 2969.5 1377.34 2780.56 1566.5 2547.5 1566.5 2314.44 1566.5 2125.5 1377.34 2125.5 1144ZM2184.29 1144C2184.29 1344.87 2346.91 1507.71 2547.5 1507.71 2748.09 1507.71 2910.71 1344.87 2910.71 1144 2910.71 943.13 2748.09 780.293 2547.5 780.293 2346.91 780.293 2184.29 943.13 2184.29 1144Z" stroke="#000000" stroke-width="6.875" stroke-miterlimit="8" fill="#FFFFFF" fill-rule="evenodd"/></g></svg>