<svg width="1039" height="1039" xmlns="http://www.w3.org/2000/svg" xmlns:xlink="http://www.w3.org/1999/xlink" xml:space="preserve" overflow="hidden"><defs><clipPath id="clip0"><rect x="1540" y="862" width="1039" height="1039"/></clipPath></defs><g clip-path="url(#clip0)" transform="translate(-1540 -862)"><path d="M1540 1484.5C1540 1254.47 1741.02 1068 1989 1068 2236.98 1068 2438 1254.47 2438 1484.5 2438 1714.53 2236.98 1901 1989 1901 1741.02 1901 1540 1714.53 1540 1484.5ZM1602.18 1484.5C1602.18 1680.19 1775.36 1838.82 1989 1838.82 2202.64 1838.82 2375.82 1680.19 2375.82 1484.5 2375.82 1288.81 2202.64 1130.18 1989 1130.18 1775.36 1130.18 1602.18 1288.81 1602.18 1484.5Z" fill="#FFFFFF" fill-rule="evenodd"/><path d="M1938 1150.5C1938 991.166 2081.49 862 2258.5 862 2435.51 862 2579 991.166 2579 1150.5 2579 1309.83 2435.51 1439 2258.5 1439 2081.49 1439 1938 1309.83 1938 1150.5ZM1986.73 1150.5C1986.73 1282.92 2108.41 1390.27 2258.5 1390.27 2408.59 1390.27 2530.27 1282.92 2530.27 1150.5 2530.27 1018.08 2408.59 910.733 2258.5 910.733 2108.41 910.733 1986.73 1018.08 1986.73 1150.5Z" fill="#FFFFFF" fill-rule="evenodd"/></g></svg>