<svg width="1046" height="1047" xmlns="http://www.w3.org/2000/svg" xmlns:xlink="http://www.w3.org/1999/xlink" xml:space="preserve" overflow="hidden"><g transform="translate(-1537 -794)"><path d="M1540.5 1393.5C1540.5 1148.29 1741.52 949.5 1989.5 949.5 2237.48 949.5 2438.5 1148.29 2438.5 1393.5 2438.5 1638.71 2237.48 1837.5 1989.5 1837.5 1741.52 1837.5 1540.5 1638.71 1540.5 1393.5ZM1602.36 1393.5C1602.36 1604.55 1775.69 1775.64 1989.5 1775.64 2203.31 1775.64 2376.64 1604.55 2376.64 1393.5 2376.64 1182.45 2203.31 1011.36 1989.5 1011.36 1775.69 1011.36 1602.36 1182.45 1602.36 1393.5Z" stroke="#000000" stroke-width="6.875" stroke-miterlimit="8" fill="#FFFFFF" fill-rule="evenodd"/><path d="M1938.5 1137.5C1938.5 949.723 2081.99 797.5 2259 797.5 2436.01 797.5 2579.5 949.723 2579.5 1137.5 2579.5 1325.28 2436.01 1477.5 2259 1477.5 2081.99 1477.5 1938.5 1325.28 1938.5 1137.5ZM1983.15 1137.5C1983.15 1300.62 2106.65 1432.85 2259 1432.85 2411.35 1432.85 2534.85 1300.62 2534.85 1137.5 2534.85 974.384 2411.35 842.152 2259 842.152 2106.65 842.152 1983.15 974.384 1983.15 1137.5Z" stroke="#000000" stroke-width="6.875" stroke-miterlimit="8" fill="#FFFFFF" fill-rule="evenodd"/></g></svg>